M48
; DRILL file {KiCad 9.0.0} date 2026-01-11T13:31:27+0100
; FORMAT={-:-/ absolute / inch / decimal}
; #@! TF.CreationDate,2026-01-11T13:31:27+01:00
; #@! TF.GenerationSoftware,Kicad,Pcbnew,9.0.0
; #@! TF.FileFunction,Plated,1,4,PTH
FMAT,2
INCH
; #@! TA.AperFunction,Plated,PTH,ViaDrill
T1C0.0118
; #@! TA.AperFunction,Plated,PTH,ComponentDrill
T2C0.0394
; #@! TA.AperFunction,Plated,PTH,ComponentDrill
T3C0.0551
%
G90
G05
T1
X5.188Y-2.022
X5.188Y-2.176
X5.438Y-2.161
X5.472Y-1.72
X5.484Y-2.178
X5.552Y-2.176
X5.576Y-2.044
X5.587Y-2.24
X5.604Y-1.833
X5.621Y-2.176
X5.69Y-2.176
X5.6944Y-1.6033
X5.72Y-1.6033
X5.76Y-2.177
X5.787Y-1.694
X5.79Y-2.243
X5.828Y-2.175
X5.858Y-2.245
X5.86Y-2.371
X5.896Y-2.044
X5.897Y-2.174
X5.9Y-1.794
X5.928Y-2.242
X5.94Y-1.944
X5.966Y-2.174
X6.0094Y-1.6036
X6.035Y-1.605
X6.052Y-2.3694
X6.1261Y-2.2921
X6.1263Y-2.2665
X6.157Y-2.079
X6.189Y-2.081
X6.208Y-2.425
X6.212Y-2.152
X6.226Y-1.944
X6.279Y-1.629
X6.294Y-1.693
X6.343Y-2.322
T2
X5.9348Y-2.566
X6.0348Y-2.566
X6.661Y-2.055
X6.661Y-2.155
T3
X5.1741Y-1.7106
X5.1741Y-1.9114
X5.1741Y-2.3012
X5.1741Y-2.502
X5.2745Y-1.811
X5.2745Y-2.4016
X5.3749Y-1.7106
X5.3749Y-1.9114
X5.3749Y-2.3012
X5.3749Y-2.502
X6.4721Y-1.7106
X6.4721Y-1.9114
X6.4721Y-2.3012
X6.4721Y-2.502
X6.5725Y-1.811
X6.5725Y-2.4016
X6.6729Y-1.7106
X6.6729Y-1.9114
X6.6729Y-2.3012
X6.6729Y-2.502
M30
