%TF.GenerationSoftware,KiCad,Pcbnew,9.0.0*%
%TF.CreationDate,2026-01-11T13:31:27+01:00*%
%TF.ProjectId,ldc_tdc_driver,6c64635f-7464-4635-9f64-72697665722e,rev?*%
%TF.SameCoordinates,Original*%
%TF.FileFunction,Copper,L3,Inr*%
%TF.FilePolarity,Positive*%
%FSLAX46Y46*%
G04 Gerber Fmt 4.6, Leading zero omitted, Abs format (unit mm)*
G04 Created by KiCad (PCBNEW 9.0.0) date 2026-01-11 13:31:27*
%MOMM*%
%LPD*%
G01*
G04 APERTURE LIST*
%TA.AperFunction,ComponentPad*%
%ADD10R,1.700000X1.700000*%
%TD*%
%TA.AperFunction,ComponentPad*%
%ADD11O,1.700000X1.700000*%
%TD*%
%TA.AperFunction,ViaPad*%
%ADD12C,0.450000*%
%TD*%
G04 APERTURE END LIST*
D10*
%TO.N,+3V3*%
%TO.C,J2*%
X169189400Y-52197000D03*
D11*
%TO.N,GND*%
X169189400Y-54737000D03*
%TD*%
D10*
%TO.N,Net-(J3-Pin_1)*%
%TO.C,J3*%
X150743600Y-65176800D03*
D11*
%TO.N,Net-(J3-Pin_2)*%
X153283600Y-65176800D03*
%TD*%
D12*
%TO.N,GND*%
X157200600Y-52857400D03*
X159486600Y-41376600D03*
X141630400Y-51917600D03*
X161112200Y-58978800D03*
X141020800Y-55270400D03*
X131775200Y-51358800D03*
X157683200Y-61595000D03*
X151536400Y-55219600D03*
X142773400Y-55270400D03*
X144526000Y-55270400D03*
X148031200Y-55245000D03*
X149783800Y-55219600D03*
X152639998Y-40730944D03*
X149758400Y-51917600D03*
X155608448Y-57569467D03*
X146304000Y-55295800D03*
X144637997Y-40725000D03*
X153720800Y-60181500D03*
X131775200Y-55270400D03*
X139293600Y-55321200D03*
X159867600Y-43002200D03*
%TO.N,+3V3*%
X153289000Y-40767000D03*
X148844000Y-60223400D03*
X156387800Y-52806600D03*
X145288000Y-40725000D03*
X155602446Y-58219442D03*
%TO.N,Net-(U2B-MR)*%
X157784800Y-54660800D03*
X158140400Y-49377600D03*
%TO.N,/B3_STOP*%
X138125200Y-54889400D03*
X138988800Y-43688000D03*
%TO.N,/B2_STOP*%
X141909800Y-56896000D03*
X142341600Y-46558200D03*
%TO.N,/B3_START*%
X147066000Y-56972200D03*
X146989800Y-43027600D03*
%TO.N,/B2_START*%
X149860000Y-45567600D03*
X148793200Y-57023000D03*
%TO.N,/B1_START*%
X150876000Y-49377600D03*
X150571200Y-56946800D03*
%TD*%
%TA.AperFunction,Conductor*%
%TO.N,+3V3*%
G36*
X143910016Y-40320185D02*
G01*
X143955771Y-40372989D01*
X143965715Y-40442147D01*
X143957538Y-40471953D01*
X143940378Y-40513379D01*
X143940376Y-40513385D01*
X143912497Y-40653542D01*
X143912497Y-40653545D01*
X143912497Y-40796455D01*
X143912497Y-40796457D01*
X143912496Y-40796457D01*
X143940376Y-40936614D01*
X143940378Y-40936620D01*
X143995066Y-41068650D01*
X143995071Y-41068659D01*
X144074464Y-41187478D01*
X144074467Y-41187482D01*
X144175514Y-41288529D01*
X144175518Y-41288532D01*
X144294337Y-41367925D01*
X144294343Y-41367928D01*
X144294344Y-41367929D01*
X144426377Y-41422619D01*
X144426381Y-41422619D01*
X144426382Y-41422620D01*
X144566539Y-41450500D01*
X144566542Y-41450500D01*
X144709454Y-41450500D01*
X144819740Y-41428562D01*
X144849617Y-41422619D01*
X144981650Y-41367929D01*
X145100476Y-41288532D01*
X145201529Y-41187479D01*
X145280926Y-41068653D01*
X145335616Y-40936620D01*
X145350154Y-40863534D01*
X145363497Y-40796457D01*
X145363497Y-40653542D01*
X145335617Y-40513385D01*
X145335616Y-40513384D01*
X145335616Y-40513380D01*
X145318455Y-40471951D01*
X145310987Y-40402484D01*
X145342262Y-40340004D01*
X145402351Y-40304352D01*
X145433017Y-40300500D01*
X151847440Y-40300500D01*
X151914479Y-40320185D01*
X151960234Y-40372989D01*
X151970178Y-40442147D01*
X151962001Y-40471953D01*
X151942379Y-40519323D01*
X151942377Y-40519329D01*
X151914498Y-40659486D01*
X151914498Y-40659489D01*
X151914498Y-40802399D01*
X151914498Y-40802401D01*
X151914497Y-40802401D01*
X151942377Y-40942558D01*
X151942379Y-40942564D01*
X151997067Y-41074594D01*
X151997072Y-41074603D01*
X152076465Y-41193422D01*
X152076468Y-41193426D01*
X152177515Y-41294473D01*
X152177519Y-41294476D01*
X152296338Y-41373869D01*
X152296344Y-41373872D01*
X152296345Y-41373873D01*
X152428378Y-41428563D01*
X152428382Y-41428563D01*
X152428383Y-41428564D01*
X152568540Y-41456444D01*
X152568543Y-41456444D01*
X152711455Y-41456444D01*
X152753615Y-41448057D01*
X158761099Y-41448057D01*
X158788979Y-41588214D01*
X158788981Y-41588220D01*
X158843669Y-41720250D01*
X158843674Y-41720259D01*
X158923067Y-41839078D01*
X158923070Y-41839082D01*
X159024117Y-41940129D01*
X159024121Y-41940132D01*
X159142940Y-42019525D01*
X159142946Y-42019528D01*
X159142947Y-42019529D01*
X159274980Y-42074219D01*
X159274984Y-42074219D01*
X159274985Y-42074220D01*
X159415142Y-42102100D01*
X159521422Y-42102100D01*
X159588461Y-42121785D01*
X159634216Y-42174589D01*
X159644160Y-42243747D01*
X159615135Y-42307303D01*
X159568875Y-42340661D01*
X159523949Y-42359269D01*
X159523940Y-42359274D01*
X159405121Y-42438667D01*
X159405117Y-42438670D01*
X159304070Y-42539717D01*
X159304067Y-42539721D01*
X159224674Y-42658540D01*
X159224669Y-42658549D01*
X159169981Y-42790579D01*
X159169979Y-42790585D01*
X159142100Y-42930742D01*
X159142100Y-42930745D01*
X159142100Y-43073655D01*
X159142100Y-43073657D01*
X159142099Y-43073657D01*
X159169979Y-43213814D01*
X159169981Y-43213820D01*
X159224669Y-43345850D01*
X159224674Y-43345859D01*
X159304067Y-43464678D01*
X159304070Y-43464682D01*
X159405117Y-43565729D01*
X159405121Y-43565732D01*
X159523940Y-43645125D01*
X159523946Y-43645128D01*
X159523947Y-43645129D01*
X159655980Y-43699819D01*
X159655984Y-43699819D01*
X159655985Y-43699820D01*
X159796142Y-43727700D01*
X159796145Y-43727700D01*
X159939057Y-43727700D01*
X160033351Y-43708942D01*
X160079220Y-43699819D01*
X160211253Y-43645129D01*
X160330079Y-43565732D01*
X160431132Y-43464679D01*
X160504074Y-43355513D01*
X163190300Y-43355513D01*
X163190300Y-43544486D01*
X163219859Y-43731118D01*
X163278254Y-43910836D01*
X163339814Y-44031653D01*
X163364040Y-44079199D01*
X163475110Y-44232073D01*
X163608727Y-44365690D01*
X163761601Y-44476760D01*
X163841147Y-44517290D01*
X163929963Y-44562545D01*
X163929965Y-44562545D01*
X163929968Y-44562547D01*
X164026297Y-44593846D01*
X164109681Y-44620940D01*
X164296314Y-44650500D01*
X164296319Y-44650500D01*
X164485286Y-44650500D01*
X164671918Y-44620940D01*
X164851632Y-44562547D01*
X165019999Y-44476760D01*
X165172873Y-44365690D01*
X165306490Y-44232073D01*
X165417560Y-44079199D01*
X165503347Y-43910832D01*
X165561740Y-43731118D01*
X165575359Y-43645130D01*
X165591300Y-43544486D01*
X165591300Y-43355513D01*
X165561740Y-43168881D01*
X165521510Y-43045069D01*
X165503347Y-42989168D01*
X165503345Y-42989165D01*
X165503345Y-42989163D01*
X165417559Y-42820800D01*
X165414057Y-42815980D01*
X165306490Y-42667927D01*
X165172873Y-42534310D01*
X165019999Y-42423240D01*
X164851636Y-42337454D01*
X164671918Y-42279059D01*
X164485286Y-42249500D01*
X164485281Y-42249500D01*
X164296319Y-42249500D01*
X164296314Y-42249500D01*
X164109681Y-42279059D01*
X163929963Y-42337454D01*
X163761600Y-42423240D01*
X163674379Y-42486610D01*
X163608727Y-42534310D01*
X163608725Y-42534312D01*
X163608724Y-42534312D01*
X163475112Y-42667924D01*
X163475112Y-42667925D01*
X163475110Y-42667927D01*
X163459373Y-42689587D01*
X163364040Y-42820800D01*
X163278254Y-42989163D01*
X163219859Y-43168881D01*
X163190300Y-43355513D01*
X160504074Y-43355513D01*
X160510529Y-43345853D01*
X160565219Y-43213820D01*
X160593100Y-43073655D01*
X160593100Y-42930745D01*
X160593100Y-42930742D01*
X160565220Y-42790585D01*
X160565219Y-42790584D01*
X160565219Y-42790580D01*
X160510529Y-42658547D01*
X160510528Y-42658546D01*
X160510525Y-42658540D01*
X160431132Y-42539721D01*
X160431129Y-42539717D01*
X160330082Y-42438670D01*
X160330078Y-42438667D01*
X160211259Y-42359274D01*
X160211250Y-42359269D01*
X160079220Y-42304581D01*
X160079214Y-42304579D01*
X159939057Y-42276700D01*
X159939055Y-42276700D01*
X159832778Y-42276700D01*
X159765739Y-42257015D01*
X159719984Y-42204211D01*
X159710040Y-42135053D01*
X159739065Y-42071497D01*
X159785325Y-42038139D01*
X159803521Y-42030601D01*
X159830253Y-42019529D01*
X159949079Y-41940132D01*
X160050132Y-41839079D01*
X160129529Y-41720253D01*
X160184219Y-41588220D01*
X160193342Y-41542351D01*
X160212100Y-41448057D01*
X160212100Y-41305142D01*
X160184220Y-41164985D01*
X160184219Y-41164984D01*
X160184219Y-41164980D01*
X160129529Y-41032947D01*
X160129528Y-41032946D01*
X160129525Y-41032940D01*
X160050132Y-40914121D01*
X160050129Y-40914117D01*
X159949082Y-40813070D01*
X159949078Y-40813067D01*
X159830259Y-40733674D01*
X159830250Y-40733669D01*
X159698220Y-40678981D01*
X159698214Y-40678979D01*
X159558057Y-40651100D01*
X159558055Y-40651100D01*
X159415145Y-40651100D01*
X159415143Y-40651100D01*
X159274985Y-40678979D01*
X159274979Y-40678981D01*
X159142949Y-40733669D01*
X159142940Y-40733674D01*
X159024121Y-40813067D01*
X159024117Y-40813070D01*
X158923070Y-40914117D01*
X158923067Y-40914121D01*
X158843674Y-41032940D01*
X158843669Y-41032949D01*
X158788981Y-41164979D01*
X158788979Y-41164985D01*
X158761100Y-41305142D01*
X158761100Y-41305145D01*
X158761100Y-41448055D01*
X158761100Y-41448057D01*
X158761099Y-41448057D01*
X152753615Y-41448057D01*
X152805749Y-41437686D01*
X152851618Y-41428563D01*
X152983651Y-41373873D01*
X153102477Y-41294476D01*
X153108424Y-41288529D01*
X153185582Y-41211372D01*
X153203527Y-41193426D01*
X153203530Y-41193423D01*
X153282927Y-41074597D01*
X153337617Y-40942564D01*
X153346740Y-40896695D01*
X153365498Y-40802401D01*
X153365498Y-40659486D01*
X153337618Y-40519329D01*
X153337617Y-40519328D01*
X153337617Y-40519324D01*
X153317994Y-40471952D01*
X153310526Y-40402484D01*
X153341801Y-40340004D01*
X153401890Y-40304352D01*
X153432556Y-40300500D01*
X169952405Y-40300500D01*
X169993907Y-40300500D01*
X170006061Y-40301097D01*
X170124317Y-40312744D01*
X170148145Y-40317483D01*
X170256005Y-40350202D01*
X170278453Y-40359501D01*
X170358869Y-40402484D01*
X170377849Y-40412629D01*
X170398059Y-40426133D01*
X170485179Y-40497630D01*
X170502369Y-40514820D01*
X170573866Y-40601940D01*
X170587370Y-40622150D01*
X170640495Y-40721538D01*
X170649798Y-40743997D01*
X170682514Y-40851848D01*
X170687256Y-40875688D01*
X170693257Y-40936620D01*
X170698903Y-40993937D01*
X170699500Y-41006092D01*
X170699500Y-42689587D01*
X170679815Y-42756626D01*
X170627011Y-42802381D01*
X170557853Y-42812325D01*
X170494297Y-42783300D01*
X170475182Y-42762473D01*
X170422227Y-42689587D01*
X170406490Y-42667927D01*
X170272873Y-42534310D01*
X170119999Y-42423240D01*
X169951636Y-42337454D01*
X169771918Y-42279059D01*
X169585286Y-42249500D01*
X169585281Y-42249500D01*
X169396319Y-42249500D01*
X169396314Y-42249500D01*
X169209681Y-42279059D01*
X169029963Y-42337454D01*
X168861600Y-42423240D01*
X168774379Y-42486610D01*
X168708727Y-42534310D01*
X168708725Y-42534312D01*
X168708724Y-42534312D01*
X168575112Y-42667924D01*
X168575112Y-42667925D01*
X168575110Y-42667927D01*
X168559373Y-42689587D01*
X168464040Y-42820800D01*
X168378254Y-42989163D01*
X168319859Y-43168881D01*
X168290300Y-43355513D01*
X168290300Y-43544486D01*
X168319859Y-43731118D01*
X168378254Y-43910836D01*
X168439814Y-44031653D01*
X168464040Y-44079199D01*
X168575110Y-44232073D01*
X168708727Y-44365690D01*
X168861601Y-44476760D01*
X168941147Y-44517290D01*
X169029963Y-44562545D01*
X169029965Y-44562545D01*
X169029968Y-44562547D01*
X169126297Y-44593846D01*
X169209681Y-44620940D01*
X169396314Y-44650500D01*
X169396319Y-44650500D01*
X169585286Y-44650500D01*
X169771918Y-44620940D01*
X169951632Y-44562547D01*
X170119999Y-44476760D01*
X170272873Y-44365690D01*
X170406490Y-44232073D01*
X170475183Y-44137524D01*
X170530512Y-44094861D01*
X170600125Y-44088882D01*
X170661920Y-44121488D01*
X170696278Y-44182327D01*
X170699500Y-44210412D01*
X170699500Y-47789587D01*
X170679815Y-47856626D01*
X170627011Y-47902381D01*
X170557853Y-47912325D01*
X170494297Y-47883300D01*
X170475182Y-47862473D01*
X170422227Y-47789587D01*
X170406490Y-47767927D01*
X170272873Y-47634310D01*
X170119999Y-47523240D01*
X169951636Y-47437454D01*
X169771918Y-47379059D01*
X169585286Y-47349500D01*
X169585281Y-47349500D01*
X169396319Y-47349500D01*
X169396314Y-47349500D01*
X169209681Y-47379059D01*
X169029963Y-47437454D01*
X168861600Y-47523240D01*
X168774379Y-47586610D01*
X168708727Y-47634310D01*
X168708725Y-47634312D01*
X168708724Y-47634312D01*
X168575112Y-47767924D01*
X168575112Y-47767925D01*
X168575110Y-47767927D01*
X168559373Y-47789587D01*
X168464040Y-47920800D01*
X168378254Y-48089163D01*
X168319859Y-48268881D01*
X168290300Y-48455513D01*
X168290300Y-48644486D01*
X168319859Y-48831118D01*
X168378254Y-49010836D01*
X168457304Y-49165979D01*
X168464040Y-49179199D01*
X168575110Y-49332073D01*
X168708727Y-49465690D01*
X168861601Y-49576760D01*
X168941147Y-49617290D01*
X169029963Y-49662545D01*
X169029965Y-49662545D01*
X169029968Y-49662547D01*
X169126297Y-49693846D01*
X169209681Y-49720940D01*
X169396314Y-49750500D01*
X169396319Y-49750500D01*
X169585286Y-49750500D01*
X169771918Y-49720940D01*
X169951632Y-49662547D01*
X170119999Y-49576760D01*
X170272873Y-49465690D01*
X170406490Y-49332073D01*
X170475183Y-49237524D01*
X170530512Y-49194861D01*
X170600125Y-49188882D01*
X170661920Y-49221488D01*
X170696278Y-49282327D01*
X170699500Y-49310412D01*
X170699500Y-51021890D01*
X170679815Y-51088929D01*
X170627011Y-51134684D01*
X170557853Y-51144628D01*
X170494297Y-51115603D01*
X170476234Y-51096202D01*
X170396587Y-50989809D01*
X170281493Y-50903649D01*
X170281486Y-50903645D01*
X170146779Y-50853403D01*
X170146772Y-50853401D01*
X170087244Y-50847000D01*
X169439400Y-50847000D01*
X169439400Y-51763988D01*
X169382393Y-51731075D01*
X169255226Y-51697000D01*
X169123574Y-51697000D01*
X168996407Y-51731075D01*
X168939400Y-51763988D01*
X168939400Y-50847000D01*
X168291555Y-50847000D01*
X168232027Y-50853401D01*
X168232020Y-50853403D01*
X168097313Y-50903645D01*
X168097306Y-50903649D01*
X167982212Y-50989809D01*
X167982209Y-50989812D01*
X167896049Y-51104906D01*
X167896045Y-51104913D01*
X167845803Y-51239620D01*
X167845801Y-51239627D01*
X167839400Y-51299155D01*
X167839400Y-51947000D01*
X168756388Y-51947000D01*
X168723475Y-52004007D01*
X168689400Y-52131174D01*
X168689400Y-52262826D01*
X168723475Y-52389993D01*
X168756388Y-52447000D01*
X167839400Y-52447000D01*
X167839400Y-53094844D01*
X167845801Y-53154372D01*
X167845803Y-53154379D01*
X167896045Y-53289086D01*
X167896049Y-53289093D01*
X167982209Y-53404187D01*
X167982212Y-53404190D01*
X168097306Y-53490350D01*
X168097313Y-53490354D01*
X168228870Y-53539422D01*
X168284804Y-53581293D01*
X168309221Y-53646758D01*
X168294369Y-53715031D01*
X168273219Y-53743285D01*
X168159289Y-53857215D01*
X168034351Y-54029179D01*
X167937844Y-54218585D01*
X167872153Y-54420760D01*
X167838900Y-54630713D01*
X167838900Y-54843286D01*
X167869008Y-55033385D01*
X167872154Y-55053243D01*
X167927744Y-55224332D01*
X167937844Y-55255414D01*
X168034351Y-55444820D01*
X168159290Y-55616786D01*
X168309613Y-55767109D01*
X168481579Y-55892048D01*
X168481581Y-55892049D01*
X168481584Y-55892051D01*
X168670988Y-55988557D01*
X168873157Y-56054246D01*
X169083113Y-56087500D01*
X169083114Y-56087500D01*
X169295686Y-56087500D01*
X169295687Y-56087500D01*
X169505643Y-56054246D01*
X169707812Y-55988557D01*
X169897216Y-55892051D01*
X169919189Y-55876086D01*
X170069186Y-55767109D01*
X170069188Y-55767106D01*
X170069192Y-55767104D01*
X170219504Y-55616792D01*
X170219506Y-55616788D01*
X170219509Y-55616786D01*
X170344448Y-55444820D01*
X170344447Y-55444820D01*
X170344451Y-55444816D01*
X170440957Y-55255412D01*
X170457570Y-55204282D01*
X170497006Y-55146609D01*
X170561365Y-55119410D01*
X170630211Y-55131324D01*
X170681687Y-55178568D01*
X170699500Y-55242602D01*
X170699500Y-57689587D01*
X170679815Y-57756626D01*
X170627011Y-57802381D01*
X170557853Y-57812325D01*
X170494297Y-57783300D01*
X170475182Y-57762473D01*
X170407865Y-57669820D01*
X170406490Y-57667927D01*
X170272873Y-57534310D01*
X170119999Y-57423240D01*
X170092593Y-57409276D01*
X169951636Y-57337454D01*
X169771918Y-57279059D01*
X169585286Y-57249500D01*
X169585281Y-57249500D01*
X169396319Y-57249500D01*
X169396314Y-57249500D01*
X169209681Y-57279059D01*
X169029963Y-57337454D01*
X168861600Y-57423240D01*
X168775938Y-57485478D01*
X168708727Y-57534310D01*
X168708725Y-57534312D01*
X168708724Y-57534312D01*
X168575112Y-57667924D01*
X168575112Y-57667925D01*
X168575110Y-57667927D01*
X168573735Y-57669820D01*
X168464040Y-57820800D01*
X168378254Y-57989163D01*
X168319859Y-58168881D01*
X168290300Y-58355513D01*
X168290300Y-58544486D01*
X168319859Y-58731118D01*
X168378254Y-58910836D01*
X168449292Y-59050255D01*
X168464040Y-59079199D01*
X168575110Y-59232073D01*
X168708727Y-59365690D01*
X168861601Y-59476760D01*
X168941147Y-59517290D01*
X169029963Y-59562545D01*
X169029965Y-59562545D01*
X169029968Y-59562547D01*
X169126297Y-59593846D01*
X169209681Y-59620940D01*
X169396314Y-59650500D01*
X169396319Y-59650500D01*
X169585286Y-59650500D01*
X169771918Y-59620940D01*
X169781068Y-59617967D01*
X169951632Y-59562547D01*
X170119999Y-59476760D01*
X170272873Y-59365690D01*
X170406490Y-59232073D01*
X170475183Y-59137524D01*
X170530512Y-59094861D01*
X170600125Y-59088882D01*
X170661920Y-59121488D01*
X170696278Y-59182327D01*
X170699500Y-59210412D01*
X170699500Y-62789587D01*
X170679815Y-62856626D01*
X170627011Y-62902381D01*
X170557853Y-62912325D01*
X170494297Y-62883300D01*
X170475182Y-62862473D01*
X170422227Y-62789587D01*
X170406490Y-62767927D01*
X170272873Y-62634310D01*
X170119999Y-62523240D01*
X169951636Y-62437454D01*
X169771918Y-62379059D01*
X169585286Y-62349500D01*
X169585281Y-62349500D01*
X169396319Y-62349500D01*
X169396314Y-62349500D01*
X169209681Y-62379059D01*
X169029963Y-62437454D01*
X168861600Y-62523240D01*
X168774379Y-62586610D01*
X168708727Y-62634310D01*
X168708725Y-62634312D01*
X168708724Y-62634312D01*
X168575112Y-62767924D01*
X168575112Y-62767925D01*
X168575110Y-62767927D01*
X168559373Y-62789587D01*
X168464040Y-62920800D01*
X168378254Y-63089163D01*
X168319859Y-63268881D01*
X168290300Y-63455513D01*
X168290300Y-63644486D01*
X168319859Y-63831118D01*
X168378254Y-64010836D01*
X168447475Y-64146689D01*
X168464040Y-64179199D01*
X168575110Y-64332073D01*
X168708727Y-64465690D01*
X168861601Y-64576760D01*
X168941147Y-64617290D01*
X169029963Y-64662545D01*
X169029965Y-64662545D01*
X169029968Y-64662547D01*
X169126297Y-64693846D01*
X169209681Y-64720940D01*
X169396314Y-64750500D01*
X169396319Y-64750500D01*
X169585286Y-64750500D01*
X169771918Y-64720940D01*
X169951632Y-64662547D01*
X170119999Y-64576760D01*
X170272873Y-64465690D01*
X170406490Y-64332073D01*
X170475183Y-64237524D01*
X170530512Y-64194861D01*
X170600125Y-64188882D01*
X170661920Y-64221488D01*
X170696278Y-64282327D01*
X170699500Y-64310412D01*
X170699500Y-65993907D01*
X170698903Y-66006061D01*
X170698903Y-66006062D01*
X170687256Y-66124311D01*
X170682514Y-66148151D01*
X170649798Y-66256002D01*
X170640495Y-66278461D01*
X170587370Y-66377849D01*
X170573866Y-66398059D01*
X170502369Y-66485179D01*
X170485179Y-66502369D01*
X170398059Y-66573866D01*
X170377849Y-66587370D01*
X170278461Y-66640495D01*
X170256002Y-66649798D01*
X170148151Y-66682514D01*
X170124311Y-66687256D01*
X170037215Y-66695834D01*
X170006060Y-66698903D01*
X169993907Y-66699500D01*
X153750424Y-66699500D01*
X153683385Y-66679815D01*
X153637630Y-66627011D01*
X153627686Y-66557853D01*
X153656711Y-66494297D01*
X153712104Y-66457569D01*
X153802012Y-66428357D01*
X153991416Y-66331851D01*
X154077738Y-66269135D01*
X154163386Y-66206909D01*
X154163388Y-66206906D01*
X154163392Y-66206904D01*
X154313704Y-66056592D01*
X154313706Y-66056588D01*
X154313709Y-66056586D01*
X154438648Y-65884620D01*
X154438647Y-65884620D01*
X154438651Y-65884616D01*
X154535157Y-65695212D01*
X154600846Y-65493043D01*
X154634100Y-65283087D01*
X154634100Y-65070513D01*
X154600846Y-64860557D01*
X154535157Y-64658388D01*
X154438651Y-64468984D01*
X154438649Y-64468981D01*
X154438648Y-64468979D01*
X154313709Y-64297013D01*
X154163386Y-64146690D01*
X153991420Y-64021751D01*
X153802014Y-63925244D01*
X153802013Y-63925243D01*
X153802012Y-63925243D01*
X153599843Y-63859554D01*
X153599841Y-63859553D01*
X153599840Y-63859553D01*
X153438557Y-63834008D01*
X153389887Y-63826300D01*
X153177313Y-63826300D01*
X153128642Y-63834008D01*
X152967360Y-63859553D01*
X152765185Y-63925244D01*
X152575779Y-64021751D01*
X152403815Y-64146689D01*
X152290273Y-64260231D01*
X152228950Y-64293715D01*
X152159258Y-64288731D01*
X152103325Y-64246859D01*
X152086410Y-64215882D01*
X152037397Y-64084471D01*
X152037393Y-64084464D01*
X151951147Y-63969255D01*
X151951144Y-63969252D01*
X151835935Y-63883006D01*
X151835928Y-63883002D01*
X151701082Y-63832708D01*
X151701083Y-63832708D01*
X151641483Y-63826301D01*
X151641481Y-63826300D01*
X151641473Y-63826300D01*
X151641464Y-63826300D01*
X149845729Y-63826300D01*
X149845723Y-63826301D01*
X149786116Y-63832708D01*
X149651271Y-63883002D01*
X149651264Y-63883006D01*
X149536055Y-63969252D01*
X149536052Y-63969255D01*
X149449806Y-64084464D01*
X149449802Y-64084471D01*
X149399508Y-64219317D01*
X149393101Y-64278916D01*
X149393100Y-64278935D01*
X149393100Y-66074670D01*
X149393101Y-66074676D01*
X149399508Y-66134283D01*
X149449802Y-66269128D01*
X149449806Y-66269135D01*
X149536052Y-66384344D01*
X149536055Y-66384347D01*
X149658369Y-66475912D01*
X149656204Y-66478802D01*
X149693467Y-66516050D01*
X149708334Y-66584320D01*
X149683931Y-66649789D01*
X149628006Y-66691672D01*
X149584648Y-66699500D01*
X131006093Y-66699500D01*
X130993939Y-66698903D01*
X130920523Y-66691672D01*
X130875688Y-66687256D01*
X130851848Y-66682514D01*
X130743997Y-66649798D01*
X130721541Y-66640496D01*
X130622150Y-66587370D01*
X130601940Y-66573866D01*
X130514820Y-66502369D01*
X130497630Y-66485179D01*
X130426133Y-66398059D01*
X130412629Y-66377849D01*
X130359501Y-66278453D01*
X130350201Y-66256002D01*
X130335309Y-66206909D01*
X130317483Y-66148145D01*
X130312744Y-66124317D01*
X130301097Y-66006061D01*
X130300500Y-65993907D01*
X130300500Y-64424625D01*
X130320185Y-64357586D01*
X130372989Y-64311831D01*
X130442147Y-64301887D01*
X130505703Y-64330912D01*
X130512181Y-64336944D01*
X130640927Y-64465690D01*
X130793801Y-64576760D01*
X130873347Y-64617290D01*
X130962163Y-64662545D01*
X130962165Y-64662545D01*
X130962168Y-64662547D01*
X131058497Y-64693846D01*
X131141881Y-64720940D01*
X131328514Y-64750500D01*
X131328519Y-64750500D01*
X131517486Y-64750500D01*
X131704118Y-64720940D01*
X131883832Y-64662547D01*
X132052199Y-64576760D01*
X132205073Y-64465690D01*
X132338690Y-64332073D01*
X132449760Y-64179199D01*
X132535547Y-64010832D01*
X132593940Y-63831118D01*
X132594703Y-63826300D01*
X132623500Y-63644486D01*
X132623500Y-63455513D01*
X135322500Y-63455513D01*
X135322500Y-63644486D01*
X135352059Y-63831118D01*
X135410454Y-64010836D01*
X135479675Y-64146689D01*
X135496240Y-64179199D01*
X135607310Y-64332073D01*
X135740927Y-64465690D01*
X135893801Y-64576760D01*
X135973347Y-64617290D01*
X136062163Y-64662545D01*
X136062165Y-64662545D01*
X136062168Y-64662547D01*
X136158497Y-64693846D01*
X136241881Y-64720940D01*
X136428514Y-64750500D01*
X136428519Y-64750500D01*
X136617486Y-64750500D01*
X136804118Y-64720940D01*
X136983832Y-64662547D01*
X137152199Y-64576760D01*
X137305073Y-64465690D01*
X137438690Y-64332073D01*
X137549760Y-64179199D01*
X137635547Y-64010832D01*
X137693940Y-63831118D01*
X137694703Y-63826300D01*
X137723500Y-63644486D01*
X137723500Y-63455513D01*
X163190300Y-63455513D01*
X163190300Y-63644486D01*
X163219859Y-63831118D01*
X163278254Y-64010836D01*
X163347475Y-64146689D01*
X163364040Y-64179199D01*
X163475110Y-64332073D01*
X163608727Y-64465690D01*
X163761601Y-64576760D01*
X163841147Y-64617290D01*
X163929963Y-64662545D01*
X163929965Y-64662545D01*
X163929968Y-64662547D01*
X164026297Y-64693846D01*
X164109681Y-64720940D01*
X164296314Y-64750500D01*
X164296319Y-64750500D01*
X164485286Y-64750500D01*
X164671918Y-64720940D01*
X164851632Y-64662547D01*
X165019999Y-64576760D01*
X165172873Y-64465690D01*
X165306490Y-64332073D01*
X165417560Y-64179199D01*
X165503347Y-64010832D01*
X165561740Y-63831118D01*
X165562503Y-63826300D01*
X165591300Y-63644486D01*
X165591300Y-63455513D01*
X165561740Y-63268881D01*
X165534646Y-63185497D01*
X165503347Y-63089168D01*
X165503345Y-63089165D01*
X165503345Y-63089163D01*
X165417559Y-62920800D01*
X165306490Y-62767927D01*
X165172873Y-62634310D01*
X165019999Y-62523240D01*
X164851636Y-62437454D01*
X164671918Y-62379059D01*
X164485286Y-62349500D01*
X164485281Y-62349500D01*
X164296319Y-62349500D01*
X164296314Y-62349500D01*
X164109681Y-62379059D01*
X163929963Y-62437454D01*
X163761600Y-62523240D01*
X163674379Y-62586610D01*
X163608727Y-62634310D01*
X163608725Y-62634312D01*
X163608724Y-62634312D01*
X163475112Y-62767924D01*
X163475112Y-62767925D01*
X163475110Y-62767927D01*
X163459373Y-62789587D01*
X163364040Y-62920800D01*
X163278254Y-63089163D01*
X163219859Y-63268881D01*
X163190300Y-63455513D01*
X137723500Y-63455513D01*
X137693940Y-63268881D01*
X137666846Y-63185497D01*
X137635547Y-63089168D01*
X137635545Y-63089165D01*
X137635545Y-63089163D01*
X137549759Y-62920800D01*
X137438690Y-62767927D01*
X137305073Y-62634310D01*
X137152199Y-62523240D01*
X136983836Y-62437454D01*
X136804118Y-62379059D01*
X136617486Y-62349500D01*
X136617481Y-62349500D01*
X136428519Y-62349500D01*
X136428514Y-62349500D01*
X136241881Y-62379059D01*
X136062163Y-62437454D01*
X135893800Y-62523240D01*
X135806579Y-62586610D01*
X135740927Y-62634310D01*
X135740925Y-62634312D01*
X135740924Y-62634312D01*
X135607312Y-62767924D01*
X135607312Y-62767925D01*
X135607310Y-62767927D01*
X135591573Y-62789587D01*
X135496240Y-62920800D01*
X135410454Y-63089163D01*
X135352059Y-63268881D01*
X135322500Y-63455513D01*
X132623500Y-63455513D01*
X132593940Y-63268881D01*
X132566846Y-63185497D01*
X132535547Y-63089168D01*
X132535545Y-63089165D01*
X132535545Y-63089163D01*
X132449759Y-62920800D01*
X132338690Y-62767927D01*
X132205073Y-62634310D01*
X132052199Y-62523240D01*
X131883836Y-62437454D01*
X131704118Y-62379059D01*
X131517486Y-62349500D01*
X131517481Y-62349500D01*
X131328519Y-62349500D01*
X131328514Y-62349500D01*
X131141881Y-62379059D01*
X130962163Y-62437454D01*
X130793800Y-62523240D01*
X130706579Y-62586610D01*
X130640927Y-62634310D01*
X130640925Y-62634312D01*
X130640924Y-62634312D01*
X130512181Y-62763056D01*
X130450858Y-62796541D01*
X130381166Y-62791557D01*
X130325233Y-62749685D01*
X130300816Y-62684221D01*
X130300500Y-62675375D01*
X130300500Y-60905513D01*
X132772500Y-60905513D01*
X132772500Y-61094486D01*
X132802059Y-61281118D01*
X132860454Y-61460836D01*
X132946240Y-61629199D01*
X133057310Y-61782073D01*
X133190927Y-61915690D01*
X133343801Y-62026760D01*
X133404089Y-62057478D01*
X133512163Y-62112545D01*
X133512165Y-62112545D01*
X133512168Y-62112547D01*
X133608497Y-62143846D01*
X133691881Y-62170940D01*
X133878514Y-62200500D01*
X133878519Y-62200500D01*
X134067486Y-62200500D01*
X134254118Y-62170940D01*
X134433832Y-62112547D01*
X134602199Y-62026760D01*
X134755073Y-61915690D01*
X134888690Y-61782073D01*
X134972690Y-61666457D01*
X156957699Y-61666457D01*
X156985579Y-61806614D01*
X156985581Y-61806620D01*
X157040269Y-61938650D01*
X157040274Y-61938659D01*
X157119667Y-62057478D01*
X157119670Y-62057482D01*
X157220717Y-62158529D01*
X157220721Y-62158532D01*
X157339540Y-62237925D01*
X157339546Y-62237928D01*
X157339547Y-62237929D01*
X157471580Y-62292619D01*
X157471584Y-62292619D01*
X157471585Y-62292620D01*
X157611742Y-62320500D01*
X157611745Y-62320500D01*
X157754657Y-62320500D01*
X157848951Y-62301742D01*
X157894820Y-62292619D01*
X158026853Y-62237929D01*
X158145679Y-62158532D01*
X158246732Y-62057479D01*
X158326129Y-61938653D01*
X158380819Y-61806620D01*
X158408700Y-61666455D01*
X158408700Y-61523545D01*
X158408700Y-61523542D01*
X158380820Y-61383385D01*
X158380819Y-61383384D01*
X158380819Y-61383380D01*
X158326129Y-61251347D01*
X158326128Y-61251346D01*
X158326125Y-61251340D01*
X158246732Y-61132521D01*
X158246729Y-61132517D01*
X158145679Y-61031467D01*
X158104195Y-61003749D01*
X158026859Y-60952074D01*
X158026850Y-60952069D01*
X157914453Y-60905513D01*
X165740300Y-60905513D01*
X165740300Y-61094486D01*
X165769859Y-61281118D01*
X165828254Y-61460836D01*
X165914040Y-61629199D01*
X166025110Y-61782073D01*
X166158727Y-61915690D01*
X166311601Y-62026760D01*
X166371889Y-62057478D01*
X166479963Y-62112545D01*
X166479965Y-62112545D01*
X166479968Y-62112547D01*
X166576297Y-62143846D01*
X166659681Y-62170940D01*
X166846314Y-62200500D01*
X166846319Y-62200500D01*
X167035286Y-62200500D01*
X167221918Y-62170940D01*
X167401632Y-62112547D01*
X167569999Y-62026760D01*
X167722873Y-61915690D01*
X167856490Y-61782073D01*
X167967560Y-61629199D01*
X168053347Y-61460832D01*
X168111740Y-61281118D01*
X168116456Y-61251340D01*
X168141300Y-61094486D01*
X168141300Y-60905513D01*
X168111740Y-60718881D01*
X168053345Y-60539163D01*
X167967559Y-60370800D01*
X167856490Y-60217927D01*
X167722873Y-60084310D01*
X167569999Y-59973240D01*
X167401636Y-59887454D01*
X167221918Y-59829059D01*
X167035286Y-59799500D01*
X167035281Y-59799500D01*
X166846319Y-59799500D01*
X166846314Y-59799500D01*
X166659681Y-59829059D01*
X166479963Y-59887454D01*
X166311600Y-59973240D01*
X166224379Y-60036610D01*
X166158727Y-60084310D01*
X166158725Y-60084312D01*
X166158724Y-60084312D01*
X166025112Y-60217924D01*
X166025112Y-60217925D01*
X166025110Y-60217927D01*
X165999661Y-60252955D01*
X165914040Y-60370800D01*
X165828254Y-60539163D01*
X165769859Y-60718881D01*
X165740300Y-60905513D01*
X157914453Y-60905513D01*
X157894820Y-60897381D01*
X157894814Y-60897379D01*
X157754657Y-60869500D01*
X157754655Y-60869500D01*
X157611745Y-60869500D01*
X157611743Y-60869500D01*
X157471585Y-60897379D01*
X157471579Y-60897381D01*
X157339549Y-60952069D01*
X157339540Y-60952074D01*
X157220721Y-61031467D01*
X157220717Y-61031470D01*
X157119670Y-61132517D01*
X157119667Y-61132521D01*
X157040274Y-61251340D01*
X157040269Y-61251349D01*
X156985581Y-61383379D01*
X156985579Y-61383385D01*
X156957700Y-61523542D01*
X156957700Y-61523545D01*
X156957700Y-61666455D01*
X156957700Y-61666457D01*
X156957699Y-61666457D01*
X134972690Y-61666457D01*
X134999760Y-61629199D01*
X135085547Y-61460832D01*
X135143940Y-61281118D01*
X135148656Y-61251340D01*
X135173500Y-61094486D01*
X135173500Y-60905513D01*
X135143940Y-60718881D01*
X135085545Y-60539163D01*
X134999759Y-60370800D01*
X134914141Y-60252957D01*
X152995299Y-60252957D01*
X153023179Y-60393114D01*
X153023181Y-60393120D01*
X153077869Y-60525150D01*
X153077874Y-60525159D01*
X153157267Y-60643978D01*
X153157270Y-60643982D01*
X153258317Y-60745029D01*
X153258321Y-60745032D01*
X153377140Y-60824425D01*
X153377146Y-60824428D01*
X153377147Y-60824429D01*
X153509180Y-60879119D01*
X153509184Y-60879119D01*
X153509185Y-60879120D01*
X153649342Y-60907000D01*
X153649345Y-60907000D01*
X153792257Y-60907000D01*
X153886551Y-60888242D01*
X153932420Y-60879119D01*
X154064453Y-60824429D01*
X154183279Y-60745032D01*
X154284332Y-60643979D01*
X154363729Y-60525153D01*
X154418419Y-60393120D01*
X154446300Y-60252955D01*
X154446300Y-60110045D01*
X154446300Y-60110042D01*
X154418420Y-59969885D01*
X154418419Y-59969884D01*
X154418419Y-59969880D01*
X154363729Y-59837847D01*
X154363728Y-59837846D01*
X154363725Y-59837840D01*
X154284332Y-59719021D01*
X154284329Y-59719017D01*
X154183282Y-59617970D01*
X154183278Y-59617967D01*
X154064459Y-59538574D01*
X154064450Y-59538569D01*
X153932420Y-59483881D01*
X153932414Y-59483879D01*
X153792257Y-59456000D01*
X153792255Y-59456000D01*
X153649345Y-59456000D01*
X153649343Y-59456000D01*
X153509185Y-59483879D01*
X153509179Y-59483881D01*
X153377149Y-59538569D01*
X153377140Y-59538574D01*
X153258321Y-59617967D01*
X153258317Y-59617970D01*
X153157270Y-59719017D01*
X153157267Y-59719021D01*
X153077874Y-59837840D01*
X153077869Y-59837849D01*
X153023181Y-59969879D01*
X153023179Y-59969885D01*
X152995300Y-60110042D01*
X152995300Y-60110045D01*
X152995300Y-60252955D01*
X152995300Y-60252957D01*
X152995299Y-60252957D01*
X134914141Y-60252957D01*
X134888690Y-60217927D01*
X134755073Y-60084310D01*
X134602199Y-59973240D01*
X134433836Y-59887454D01*
X134254118Y-59829059D01*
X134067486Y-59799500D01*
X134067481Y-59799500D01*
X133878519Y-59799500D01*
X133878514Y-59799500D01*
X133691881Y-59829059D01*
X133512163Y-59887454D01*
X133343800Y-59973240D01*
X133256579Y-60036610D01*
X133190927Y-60084310D01*
X133190925Y-60084312D01*
X133190924Y-60084312D01*
X133057312Y-60217924D01*
X133057312Y-60217925D01*
X133057310Y-60217927D01*
X133031861Y-60252955D01*
X132946240Y-60370800D01*
X132860454Y-60539163D01*
X132802059Y-60718881D01*
X132772500Y-60905513D01*
X130300500Y-60905513D01*
X130300500Y-59324625D01*
X130320185Y-59257586D01*
X130372989Y-59211831D01*
X130442147Y-59201887D01*
X130505703Y-59230912D01*
X130512181Y-59236944D01*
X130640927Y-59365690D01*
X130793801Y-59476760D01*
X130873347Y-59517290D01*
X130962163Y-59562545D01*
X130962165Y-59562545D01*
X130962168Y-59562547D01*
X131058497Y-59593846D01*
X131141881Y-59620940D01*
X131328514Y-59650500D01*
X131328519Y-59650500D01*
X131517486Y-59650500D01*
X131704118Y-59620940D01*
X131713268Y-59617967D01*
X131883832Y-59562547D01*
X132052199Y-59476760D01*
X132205073Y-59365690D01*
X132338690Y-59232073D01*
X132449760Y-59079199D01*
X132535547Y-58910832D01*
X132593940Y-58731118D01*
X132609140Y-58635149D01*
X132623500Y-58544486D01*
X132623500Y-58355513D01*
X135322500Y-58355513D01*
X135322500Y-58544486D01*
X135352059Y-58731118D01*
X135410454Y-58910836D01*
X135481492Y-59050255D01*
X135496240Y-59079199D01*
X135607310Y-59232073D01*
X135740927Y-59365690D01*
X135893801Y-59476760D01*
X135973347Y-59517290D01*
X136062163Y-59562545D01*
X136062165Y-59562545D01*
X136062168Y-59562547D01*
X136158497Y-59593846D01*
X136241881Y-59620940D01*
X136428514Y-59650500D01*
X136428519Y-59650500D01*
X136617486Y-59650500D01*
X136804118Y-59620940D01*
X136813268Y-59617967D01*
X136983832Y-59562547D01*
X137152199Y-59476760D01*
X137305073Y-59365690D01*
X137438690Y-59232073D01*
X137549760Y-59079199D01*
X137564507Y-59050257D01*
X160386699Y-59050257D01*
X160414579Y-59190414D01*
X160414581Y-59190420D01*
X160469269Y-59322450D01*
X160469274Y-59322459D01*
X160548667Y-59441278D01*
X160548670Y-59441282D01*
X160649717Y-59542329D01*
X160649721Y-59542332D01*
X160768540Y-59621725D01*
X160768546Y-59621728D01*
X160768547Y-59621729D01*
X160900580Y-59676419D01*
X160900584Y-59676419D01*
X160900585Y-59676420D01*
X161040742Y-59704300D01*
X161040745Y-59704300D01*
X161183657Y-59704300D01*
X161277951Y-59685542D01*
X161323820Y-59676419D01*
X161455853Y-59621729D01*
X161574679Y-59542332D01*
X161675732Y-59441279D01*
X161755129Y-59322453D01*
X161809819Y-59190420D01*
X161828827Y-59094861D01*
X161837700Y-59050257D01*
X161837700Y-58907342D01*
X161809820Y-58767185D01*
X161809819Y-58767184D01*
X161809819Y-58767180D01*
X161755129Y-58635147D01*
X161755128Y-58635146D01*
X161755125Y-58635140D01*
X161675732Y-58516321D01*
X161675729Y-58516317D01*
X161574682Y-58415270D01*
X161574678Y-58415267D01*
X161485251Y-58355513D01*
X163190300Y-58355513D01*
X163190300Y-58544486D01*
X163219859Y-58731118D01*
X163278254Y-58910836D01*
X163349292Y-59050255D01*
X163364040Y-59079199D01*
X163475110Y-59232073D01*
X163608727Y-59365690D01*
X163761601Y-59476760D01*
X163841147Y-59517290D01*
X163929963Y-59562545D01*
X163929965Y-59562545D01*
X163929968Y-59562547D01*
X164026297Y-59593846D01*
X164109681Y-59620940D01*
X164296314Y-59650500D01*
X164296319Y-59650500D01*
X164485286Y-59650500D01*
X164671918Y-59620940D01*
X164681068Y-59617967D01*
X164851632Y-59562547D01*
X165019999Y-59476760D01*
X165172873Y-59365690D01*
X165306490Y-59232073D01*
X165417560Y-59079199D01*
X165503347Y-58910832D01*
X165561740Y-58731118D01*
X165576940Y-58635149D01*
X165591300Y-58544486D01*
X165591300Y-58355513D01*
X165561740Y-58168881D01*
X165517247Y-58031949D01*
X165503347Y-57989168D01*
X165503345Y-57989165D01*
X165503345Y-57989163D01*
X165417559Y-57820800D01*
X165306490Y-57667927D01*
X165172873Y-57534310D01*
X165019999Y-57423240D01*
X164992593Y-57409276D01*
X164851636Y-57337454D01*
X164671918Y-57279059D01*
X164485286Y-57249500D01*
X164485281Y-57249500D01*
X164296319Y-57249500D01*
X164296314Y-57249500D01*
X164109681Y-57279059D01*
X163929963Y-57337454D01*
X163761600Y-57423240D01*
X163675938Y-57485478D01*
X163608727Y-57534310D01*
X163608725Y-57534312D01*
X163608724Y-57534312D01*
X163475112Y-57667924D01*
X163475112Y-57667925D01*
X163475110Y-57667927D01*
X163473735Y-57669820D01*
X163364040Y-57820800D01*
X163278254Y-57989163D01*
X163219859Y-58168881D01*
X163190300Y-58355513D01*
X161485251Y-58355513D01*
X161455859Y-58335874D01*
X161455850Y-58335869D01*
X161323820Y-58281181D01*
X161323814Y-58281179D01*
X161183657Y-58253300D01*
X161183655Y-58253300D01*
X161040745Y-58253300D01*
X161040743Y-58253300D01*
X160900585Y-58281179D01*
X160900579Y-58281181D01*
X160768549Y-58335869D01*
X160768540Y-58335874D01*
X160649721Y-58415267D01*
X160649717Y-58415270D01*
X160548670Y-58516317D01*
X160548667Y-58516321D01*
X160469274Y-58635140D01*
X160469269Y-58635149D01*
X160414581Y-58767179D01*
X160414579Y-58767185D01*
X160386700Y-58907342D01*
X160386700Y-58907345D01*
X160386700Y-59050255D01*
X160386700Y-59050257D01*
X160386699Y-59050257D01*
X137564507Y-59050257D01*
X137635547Y-58910832D01*
X137693940Y-58731118D01*
X137709140Y-58635149D01*
X137723500Y-58544486D01*
X137723500Y-58355513D01*
X137693940Y-58168881D01*
X137649447Y-58031949D01*
X137635547Y-57989168D01*
X137635545Y-57989165D01*
X137635545Y-57989163D01*
X137549759Y-57820800D01*
X137438690Y-57667927D01*
X137305073Y-57534310D01*
X137152199Y-57423240D01*
X137124793Y-57409276D01*
X136983836Y-57337454D01*
X136804118Y-57279059D01*
X136617486Y-57249500D01*
X136617481Y-57249500D01*
X136428519Y-57249500D01*
X136428514Y-57249500D01*
X136241881Y-57279059D01*
X136062163Y-57337454D01*
X135893800Y-57423240D01*
X135808138Y-57485478D01*
X135740927Y-57534310D01*
X135740925Y-57534312D01*
X135740924Y-57534312D01*
X135607312Y-57667924D01*
X135607312Y-57667925D01*
X135607310Y-57667927D01*
X135605935Y-57669820D01*
X135496240Y-57820800D01*
X135410454Y-57989163D01*
X135352059Y-58168881D01*
X135322500Y-58355513D01*
X132623500Y-58355513D01*
X132593940Y-58168881D01*
X132549447Y-58031949D01*
X132535547Y-57989168D01*
X132535545Y-57989165D01*
X132535545Y-57989163D01*
X132449759Y-57820800D01*
X132338690Y-57667927D01*
X132205073Y-57534310D01*
X132052199Y-57423240D01*
X132024793Y-57409276D01*
X131883836Y-57337454D01*
X131704118Y-57279059D01*
X131517486Y-57249500D01*
X131517481Y-57249500D01*
X131328519Y-57249500D01*
X131328514Y-57249500D01*
X131141881Y-57279059D01*
X130962163Y-57337454D01*
X130793800Y-57423240D01*
X130708138Y-57485478D01*
X130640927Y-57534310D01*
X130640925Y-57534312D01*
X130640924Y-57534312D01*
X130512181Y-57663056D01*
X130450858Y-57696541D01*
X130381166Y-57691557D01*
X130325233Y-57649685D01*
X130300816Y-57584221D01*
X130300500Y-57575375D01*
X130300500Y-56967457D01*
X141184299Y-56967457D01*
X141212179Y-57107614D01*
X141212181Y-57107620D01*
X141266869Y-57239650D01*
X141266874Y-57239659D01*
X141346267Y-57358478D01*
X141346270Y-57358482D01*
X141447317Y-57459529D01*
X141447321Y-57459532D01*
X141566140Y-57538925D01*
X141566146Y-57538928D01*
X141566147Y-57538929D01*
X141698180Y-57593619D01*
X141698184Y-57593619D01*
X141698185Y-57593620D01*
X141838342Y-57621500D01*
X141838345Y-57621500D01*
X141981257Y-57621500D01*
X142075551Y-57602742D01*
X142121420Y-57593619D01*
X142253453Y-57538929D01*
X142372279Y-57459532D01*
X142473332Y-57358479D01*
X142552729Y-57239653D01*
X142607419Y-57107620D01*
X142620142Y-57043657D01*
X146340499Y-57043657D01*
X146368379Y-57183814D01*
X146368381Y-57183820D01*
X146423069Y-57315850D01*
X146423074Y-57315859D01*
X146502467Y-57434678D01*
X146502470Y-57434682D01*
X146603517Y-57535729D01*
X146603521Y-57535732D01*
X146722340Y-57615125D01*
X146722346Y-57615128D01*
X146722347Y-57615129D01*
X146854380Y-57669819D01*
X146854384Y-57669819D01*
X146854385Y-57669820D01*
X146994542Y-57697700D01*
X146994545Y-57697700D01*
X147137457Y-57697700D01*
X147265147Y-57672300D01*
X147277620Y-57669819D01*
X147409653Y-57615129D01*
X147528479Y-57535732D01*
X147629532Y-57434679D01*
X147708929Y-57315853D01*
X147763619Y-57183820D01*
X147781395Y-57094457D01*
X148067699Y-57094457D01*
X148095579Y-57234614D01*
X148095581Y-57234620D01*
X148150269Y-57366650D01*
X148150274Y-57366659D01*
X148229667Y-57485478D01*
X148229670Y-57485482D01*
X148330717Y-57586529D01*
X148330721Y-57586532D01*
X148449540Y-57665925D01*
X148449549Y-57665930D01*
X148464928Y-57672300D01*
X148581580Y-57720619D01*
X148581584Y-57720619D01*
X148581585Y-57720620D01*
X148721742Y-57748500D01*
X148721745Y-57748500D01*
X148864657Y-57748500D01*
X148958951Y-57729742D01*
X149004820Y-57720619D01*
X149136853Y-57665929D01*
X149255679Y-57586532D01*
X149356732Y-57485479D01*
X149436129Y-57366653D01*
X149490819Y-57234620D01*
X149505978Y-57158414D01*
X149518700Y-57094457D01*
X149518700Y-57018257D01*
X149845699Y-57018257D01*
X149873579Y-57158414D01*
X149873581Y-57158420D01*
X149928269Y-57290450D01*
X149928274Y-57290459D01*
X150007667Y-57409278D01*
X150007670Y-57409282D01*
X150108717Y-57510329D01*
X150108721Y-57510332D01*
X150227540Y-57589725D01*
X150227549Y-57589730D01*
X150257458Y-57602118D01*
X150359580Y-57644419D01*
X150359584Y-57644419D01*
X150359585Y-57644420D01*
X150499742Y-57672300D01*
X150499745Y-57672300D01*
X150642657Y-57672300D01*
X150756346Y-57649685D01*
X150782820Y-57644419D01*
X150791258Y-57640924D01*
X154882947Y-57640924D01*
X154910827Y-57781081D01*
X154910829Y-57781087D01*
X154965517Y-57913117D01*
X154965522Y-57913126D01*
X155044915Y-58031945D01*
X155044918Y-58031949D01*
X155145965Y-58132996D01*
X155145969Y-58132999D01*
X155264788Y-58212392D01*
X155264794Y-58212395D01*
X155264795Y-58212396D01*
X155396828Y-58267086D01*
X155396832Y-58267086D01*
X155396833Y-58267087D01*
X155536990Y-58294967D01*
X155536993Y-58294967D01*
X155679905Y-58294967D01*
X155774199Y-58276209D01*
X155820068Y-58267086D01*
X155952101Y-58212396D01*
X156070927Y-58132999D01*
X156171980Y-58031946D01*
X156251377Y-57913120D01*
X156306067Y-57781087D01*
X156324268Y-57689587D01*
X156333948Y-57640924D01*
X156333948Y-57498009D01*
X156306068Y-57357852D01*
X156306067Y-57357851D01*
X156306067Y-57357847D01*
X156251377Y-57225814D01*
X156251376Y-57225813D01*
X156251373Y-57225807D01*
X156171980Y-57106988D01*
X156171977Y-57106984D01*
X156070930Y-57005937D01*
X156070926Y-57005934D01*
X155952107Y-56926541D01*
X155952098Y-56926536D01*
X155820068Y-56871848D01*
X155820062Y-56871846D01*
X155679905Y-56843967D01*
X155679903Y-56843967D01*
X155536993Y-56843967D01*
X155536991Y-56843967D01*
X155396833Y-56871846D01*
X155396827Y-56871848D01*
X155264797Y-56926536D01*
X155264788Y-56926541D01*
X155145969Y-57005934D01*
X155145965Y-57005937D01*
X155044918Y-57106984D01*
X155044915Y-57106988D01*
X154965522Y-57225807D01*
X154965517Y-57225816D01*
X154910829Y-57357846D01*
X154910827Y-57357852D01*
X154882948Y-57498009D01*
X154882948Y-57498012D01*
X154882948Y-57640922D01*
X154882948Y-57640924D01*
X154882947Y-57640924D01*
X150791258Y-57640924D01*
X150914853Y-57589729D01*
X151033679Y-57510332D01*
X151134732Y-57409279D01*
X151214129Y-57290453D01*
X151268819Y-57158420D01*
X151296700Y-57018255D01*
X151296700Y-56875345D01*
X151296700Y-56875342D01*
X151268820Y-56735185D01*
X151268819Y-56735184D01*
X151268819Y-56735180D01*
X151214129Y-56603147D01*
X151214128Y-56603146D01*
X151214125Y-56603140D01*
X151134732Y-56484321D01*
X151134729Y-56484317D01*
X151033682Y-56383270D01*
X151033678Y-56383267D01*
X150914859Y-56303874D01*
X150914850Y-56303869D01*
X150782820Y-56249181D01*
X150782814Y-56249179D01*
X150642657Y-56221300D01*
X150642655Y-56221300D01*
X150499745Y-56221300D01*
X150499743Y-56221300D01*
X150359585Y-56249179D01*
X150359579Y-56249181D01*
X150227549Y-56303869D01*
X150227540Y-56303874D01*
X150108721Y-56383267D01*
X150108717Y-56383270D01*
X150007670Y-56484317D01*
X150007667Y-56484321D01*
X149928274Y-56603140D01*
X149928269Y-56603149D01*
X149873581Y-56735179D01*
X149873579Y-56735185D01*
X149845700Y-56875342D01*
X149845700Y-56875345D01*
X149845700Y-57018255D01*
X149845700Y-57018257D01*
X149845699Y-57018257D01*
X149518700Y-57018257D01*
X149518700Y-56951542D01*
X149507143Y-56893445D01*
X149507143Y-56893444D01*
X149497301Y-56843967D01*
X149490819Y-56811380D01*
X149436129Y-56679347D01*
X149436128Y-56679346D01*
X149436125Y-56679340D01*
X149356732Y-56560521D01*
X149356729Y-56560517D01*
X149255682Y-56459470D01*
X149255678Y-56459467D01*
X149136859Y-56380074D01*
X149136850Y-56380069D01*
X149004820Y-56325381D01*
X149004814Y-56325379D01*
X148864657Y-56297500D01*
X148864655Y-56297500D01*
X148721745Y-56297500D01*
X148721743Y-56297500D01*
X148581585Y-56325379D01*
X148581579Y-56325381D01*
X148449549Y-56380069D01*
X148449540Y-56380074D01*
X148330721Y-56459467D01*
X148330717Y-56459470D01*
X148229670Y-56560517D01*
X148229667Y-56560521D01*
X148150274Y-56679340D01*
X148150269Y-56679349D01*
X148095581Y-56811379D01*
X148095579Y-56811385D01*
X148067700Y-56951542D01*
X148067700Y-56951545D01*
X148067700Y-57094455D01*
X148067700Y-57094457D01*
X148067699Y-57094457D01*
X147781395Y-57094457D01*
X147791500Y-57043655D01*
X147791500Y-56900745D01*
X147791500Y-56900742D01*
X147763620Y-56760585D01*
X147763619Y-56760584D01*
X147763619Y-56760580D01*
X147708929Y-56628547D01*
X147708928Y-56628546D01*
X147708925Y-56628540D01*
X147629532Y-56509721D01*
X147629529Y-56509717D01*
X147528482Y-56408670D01*
X147528478Y-56408667D01*
X147409659Y-56329274D01*
X147409650Y-56329269D01*
X147277620Y-56274581D01*
X147277614Y-56274579D01*
X147137457Y-56246700D01*
X147137455Y-56246700D01*
X146994545Y-56246700D01*
X146994543Y-56246700D01*
X146854385Y-56274579D01*
X146854379Y-56274581D01*
X146722349Y-56329269D01*
X146722340Y-56329274D01*
X146603521Y-56408667D01*
X146603517Y-56408670D01*
X146502470Y-56509717D01*
X146502467Y-56509721D01*
X146423074Y-56628540D01*
X146423069Y-56628549D01*
X146368381Y-56760579D01*
X146368379Y-56760585D01*
X146340500Y-56900742D01*
X146340500Y-56900745D01*
X146340500Y-57043655D01*
X146340500Y-57043657D01*
X146340499Y-57043657D01*
X142620142Y-57043657D01*
X142625195Y-57018255D01*
X142635300Y-56967457D01*
X142635300Y-56824542D01*
X142607420Y-56684385D01*
X142607419Y-56684384D01*
X142607419Y-56684380D01*
X142552729Y-56552347D01*
X142552728Y-56552346D01*
X142552725Y-56552340D01*
X142473332Y-56433521D01*
X142473329Y-56433517D01*
X142372282Y-56332470D01*
X142372278Y-56332467D01*
X142253459Y-56253074D01*
X142253450Y-56253069D01*
X142121420Y-56198381D01*
X142121414Y-56198379D01*
X141981257Y-56170500D01*
X141981255Y-56170500D01*
X141838345Y-56170500D01*
X141838343Y-56170500D01*
X141698185Y-56198379D01*
X141698179Y-56198381D01*
X141566149Y-56253069D01*
X141566140Y-56253074D01*
X141447321Y-56332467D01*
X141447317Y-56332470D01*
X141346270Y-56433517D01*
X141346267Y-56433521D01*
X141266874Y-56552340D01*
X141266869Y-56552349D01*
X141212181Y-56684379D01*
X141212179Y-56684385D01*
X141184300Y-56824542D01*
X141184300Y-56824545D01*
X141184300Y-56967455D01*
X141184300Y-56967457D01*
X141184299Y-56967457D01*
X130300500Y-56967457D01*
X130300500Y-55341857D01*
X131049699Y-55341857D01*
X131077579Y-55482014D01*
X131077581Y-55482020D01*
X131132269Y-55614050D01*
X131132274Y-55614059D01*
X131211667Y-55732878D01*
X131211670Y-55732882D01*
X131312717Y-55833929D01*
X131312721Y-55833932D01*
X131431540Y-55913325D01*
X131431549Y-55913330D01*
X131461458Y-55925718D01*
X131563580Y-55968019D01*
X131563584Y-55968019D01*
X131563585Y-55968020D01*
X131703742Y-55995900D01*
X131703745Y-55995900D01*
X131846657Y-55995900D01*
X131974347Y-55970500D01*
X131986820Y-55968019D01*
X132118853Y-55913329D01*
X132237679Y-55833932D01*
X132338732Y-55732879D01*
X132418129Y-55614053D01*
X132472819Y-55482020D01*
X132497405Y-55358419D01*
X132500700Y-55341857D01*
X132500700Y-55198942D01*
X132472820Y-55058785D01*
X132472819Y-55058784D01*
X132472819Y-55058780D01*
X132432258Y-54960857D01*
X137399699Y-54960857D01*
X137427579Y-55101014D01*
X137427581Y-55101020D01*
X137482269Y-55233050D01*
X137482274Y-55233059D01*
X137561667Y-55351878D01*
X137561670Y-55351882D01*
X137662717Y-55452929D01*
X137662721Y-55452932D01*
X137781540Y-55532325D01*
X137781549Y-55532330D01*
X137811458Y-55544718D01*
X137913580Y-55587019D01*
X137913584Y-55587019D01*
X137913585Y-55587020D01*
X138053742Y-55614900D01*
X138053745Y-55614900D01*
X138196657Y-55614900D01*
X138290951Y-55596142D01*
X138336820Y-55587019D01*
X138462629Y-55534906D01*
X138532097Y-55527438D01*
X138594577Y-55558713D01*
X138624642Y-55602015D01*
X138650669Y-55664849D01*
X138650674Y-55664859D01*
X138730067Y-55783678D01*
X138730070Y-55783682D01*
X138831117Y-55884729D01*
X138831121Y-55884732D01*
X138949940Y-55964125D01*
X138949949Y-55964130D01*
X138965328Y-55970500D01*
X139081980Y-56018819D01*
X139081984Y-56018819D01*
X139081985Y-56018820D01*
X139222142Y-56046700D01*
X139222145Y-56046700D01*
X139365057Y-56046700D01*
X139492747Y-56021300D01*
X139505220Y-56018819D01*
X139637253Y-55964129D01*
X139756079Y-55884732D01*
X139857132Y-55783679D01*
X139936529Y-55664853D01*
X139991219Y-55532820D01*
X140008724Y-55444820D01*
X140019100Y-55392657D01*
X140019100Y-55341857D01*
X140295299Y-55341857D01*
X140323179Y-55482014D01*
X140323181Y-55482020D01*
X140377869Y-55614050D01*
X140377874Y-55614059D01*
X140457267Y-55732878D01*
X140457270Y-55732882D01*
X140558317Y-55833929D01*
X140558321Y-55833932D01*
X140677140Y-55913325D01*
X140677149Y-55913330D01*
X140707058Y-55925718D01*
X140809180Y-55968019D01*
X140809184Y-55968019D01*
X140809185Y-55968020D01*
X140949342Y-55995900D01*
X140949345Y-55995900D01*
X141092257Y-55995900D01*
X141219947Y-55970500D01*
X141232420Y-55968019D01*
X141364453Y-55913329D01*
X141483279Y-55833932D01*
X141584332Y-55732879D01*
X141663729Y-55614053D01*
X141718419Y-55482020D01*
X141743005Y-55358419D01*
X141746300Y-55341857D01*
X142047899Y-55341857D01*
X142075779Y-55482014D01*
X142075781Y-55482020D01*
X142130469Y-55614050D01*
X142130474Y-55614059D01*
X142209867Y-55732878D01*
X142209870Y-55732882D01*
X142310917Y-55833929D01*
X142310921Y-55833932D01*
X142429740Y-55913325D01*
X142429749Y-55913330D01*
X142459658Y-55925718D01*
X142561780Y-55968019D01*
X142561784Y-55968019D01*
X142561785Y-55968020D01*
X142701942Y-55995900D01*
X142701945Y-55995900D01*
X142844857Y-55995900D01*
X142972547Y-55970500D01*
X142985020Y-55968019D01*
X143117053Y-55913329D01*
X143235879Y-55833932D01*
X143336932Y-55732879D01*
X143416329Y-55614053D01*
X143471019Y-55482020D01*
X143495605Y-55358419D01*
X143498900Y-55341857D01*
X143800499Y-55341857D01*
X143828379Y-55482014D01*
X143828381Y-55482020D01*
X143883069Y-55614050D01*
X143883074Y-55614059D01*
X143962467Y-55732878D01*
X143962470Y-55732882D01*
X144063517Y-55833929D01*
X144063521Y-55833932D01*
X144182340Y-55913325D01*
X144182349Y-55913330D01*
X144212258Y-55925718D01*
X144314380Y-55968019D01*
X144314384Y-55968019D01*
X144314385Y-55968020D01*
X144454542Y-55995900D01*
X144454545Y-55995900D01*
X144597457Y-55995900D01*
X144725147Y-55970500D01*
X144737620Y-55968019D01*
X144869653Y-55913329D01*
X144988479Y-55833932D01*
X145089532Y-55732879D01*
X145168929Y-55614053D01*
X145223619Y-55482020D01*
X145246447Y-55367257D01*
X145578499Y-55367257D01*
X145606379Y-55507414D01*
X145606381Y-55507420D01*
X145661069Y-55639450D01*
X145661074Y-55639459D01*
X145740467Y-55758278D01*
X145740470Y-55758282D01*
X145841517Y-55859329D01*
X145841521Y-55859332D01*
X145960340Y-55938725D01*
X145960349Y-55938730D01*
X145975728Y-55945100D01*
X146092380Y-55993419D01*
X146092384Y-55993419D01*
X146092385Y-55993420D01*
X146232542Y-56021300D01*
X146232545Y-56021300D01*
X146375457Y-56021300D01*
X146503147Y-55995900D01*
X146515620Y-55993419D01*
X146647653Y-55938729D01*
X146766479Y-55859332D01*
X146867532Y-55758279D01*
X146946929Y-55639453D01*
X147001619Y-55507420D01*
X147029500Y-55367255D01*
X147029500Y-55316457D01*
X147305699Y-55316457D01*
X147333579Y-55456614D01*
X147333581Y-55456620D01*
X147388269Y-55588650D01*
X147388274Y-55588659D01*
X147467667Y-55707478D01*
X147467670Y-55707482D01*
X147568717Y-55808529D01*
X147568721Y-55808532D01*
X147687540Y-55887925D01*
X147687546Y-55887928D01*
X147687547Y-55887929D01*
X147819580Y-55942619D01*
X147819584Y-55942619D01*
X147819585Y-55942620D01*
X147959742Y-55970500D01*
X147959745Y-55970500D01*
X148102657Y-55970500D01*
X148230347Y-55945100D01*
X148242820Y-55942619D01*
X148374853Y-55887929D01*
X148493679Y-55808532D01*
X148594732Y-55707479D01*
X148674129Y-55588653D01*
X148728819Y-55456620D01*
X148756700Y-55316455D01*
X148756700Y-55291057D01*
X149058299Y-55291057D01*
X149086179Y-55431214D01*
X149086181Y-55431220D01*
X149140869Y-55563250D01*
X149140874Y-55563259D01*
X149220267Y-55682078D01*
X149220270Y-55682082D01*
X149321317Y-55783129D01*
X149321321Y-55783132D01*
X149440140Y-55862525D01*
X149440146Y-55862528D01*
X149440147Y-55862529D01*
X149572180Y-55917219D01*
X149572184Y-55917219D01*
X149572185Y-55917220D01*
X149712342Y-55945100D01*
X149712345Y-55945100D01*
X149855257Y-55945100D01*
X149949551Y-55926342D01*
X149995420Y-55917219D01*
X150127453Y-55862529D01*
X150246279Y-55783132D01*
X150347332Y-55682079D01*
X150426729Y-55563253D01*
X150481419Y-55431220D01*
X150495900Y-55358419D01*
X150509300Y-55291057D01*
X150810899Y-55291057D01*
X150838779Y-55431214D01*
X150838781Y-55431220D01*
X150893469Y-55563250D01*
X150893474Y-55563259D01*
X150972867Y-55682078D01*
X150972870Y-55682082D01*
X151073917Y-55783129D01*
X151073921Y-55783132D01*
X151192740Y-55862525D01*
X151192746Y-55862528D01*
X151192747Y-55862529D01*
X151324780Y-55917219D01*
X151324784Y-55917219D01*
X151324785Y-55917220D01*
X151464942Y-55945100D01*
X151464945Y-55945100D01*
X151607857Y-55945100D01*
X151702151Y-55926342D01*
X151748020Y-55917219D01*
X151880053Y-55862529D01*
X151998879Y-55783132D01*
X152099932Y-55682079D01*
X152179329Y-55563253D01*
X152234019Y-55431220D01*
X152248500Y-55358419D01*
X152261900Y-55291057D01*
X152261900Y-55148142D01*
X152234020Y-55007985D01*
X152234019Y-55007984D01*
X152234019Y-55007980D01*
X152179329Y-54875947D01*
X152179328Y-54875946D01*
X152179325Y-54875940D01*
X152099932Y-54757121D01*
X152099929Y-54757117D01*
X152075069Y-54732257D01*
X157059299Y-54732257D01*
X157087179Y-54872414D01*
X157087181Y-54872420D01*
X157141869Y-55004450D01*
X157141874Y-55004459D01*
X157221267Y-55123278D01*
X157221270Y-55123282D01*
X157322317Y-55224329D01*
X157322321Y-55224332D01*
X157441140Y-55303725D01*
X157441146Y-55303728D01*
X157441147Y-55303729D01*
X157573180Y-55358419D01*
X157573184Y-55358419D01*
X157573185Y-55358420D01*
X157713342Y-55386300D01*
X157713345Y-55386300D01*
X157856257Y-55386300D01*
X157951999Y-55367255D01*
X157996420Y-55358419D01*
X158128453Y-55303729D01*
X158247279Y-55224332D01*
X158348332Y-55123279D01*
X158427729Y-55004453D01*
X158482419Y-54872420D01*
X158505355Y-54757117D01*
X158510300Y-54732257D01*
X158510300Y-54589342D01*
X158482420Y-54449185D01*
X158482419Y-54449184D01*
X158482419Y-54449180D01*
X158431341Y-54325867D01*
X158427730Y-54317149D01*
X158427725Y-54317140D01*
X158348332Y-54198321D01*
X158348329Y-54198317D01*
X158247282Y-54097270D01*
X158247278Y-54097267D01*
X158128459Y-54017874D01*
X158128450Y-54017869D01*
X157996420Y-53963181D01*
X157996414Y-53963179D01*
X157856257Y-53935300D01*
X157856255Y-53935300D01*
X157713345Y-53935300D01*
X157713343Y-53935300D01*
X157573185Y-53963179D01*
X157573179Y-53963181D01*
X157441149Y-54017869D01*
X157441140Y-54017874D01*
X157322321Y-54097267D01*
X157322317Y-54097270D01*
X157221270Y-54198317D01*
X157221267Y-54198321D01*
X157141874Y-54317140D01*
X157141869Y-54317149D01*
X157087181Y-54449179D01*
X157087179Y-54449185D01*
X157059300Y-54589342D01*
X157059300Y-54589345D01*
X157059300Y-54732255D01*
X157059300Y-54732257D01*
X157059299Y-54732257D01*
X152075069Y-54732257D01*
X151998882Y-54656070D01*
X151998878Y-54656067D01*
X151880059Y-54576674D01*
X151880050Y-54576669D01*
X151748020Y-54521981D01*
X151748014Y-54521979D01*
X151607857Y-54494100D01*
X151607855Y-54494100D01*
X151464945Y-54494100D01*
X151464943Y-54494100D01*
X151324785Y-54521979D01*
X151324779Y-54521981D01*
X151192749Y-54576669D01*
X151192740Y-54576674D01*
X151073921Y-54656067D01*
X151073917Y-54656070D01*
X150972870Y-54757117D01*
X150972867Y-54757121D01*
X150893474Y-54875940D01*
X150893469Y-54875949D01*
X150838781Y-55007979D01*
X150838779Y-55007985D01*
X150810900Y-55148142D01*
X150810900Y-55148145D01*
X150810900Y-55291055D01*
X150810900Y-55291057D01*
X150810899Y-55291057D01*
X150509300Y-55291057D01*
X150509300Y-55148142D01*
X150481420Y-55007985D01*
X150481419Y-55007984D01*
X150481419Y-55007980D01*
X150426729Y-54875947D01*
X150426728Y-54875946D01*
X150426725Y-54875940D01*
X150347332Y-54757121D01*
X150347329Y-54757117D01*
X150246282Y-54656070D01*
X150246278Y-54656067D01*
X150127459Y-54576674D01*
X150127450Y-54576669D01*
X149995420Y-54521981D01*
X149995414Y-54521979D01*
X149855257Y-54494100D01*
X149855255Y-54494100D01*
X149712345Y-54494100D01*
X149712343Y-54494100D01*
X149572185Y-54521979D01*
X149572179Y-54521981D01*
X149440149Y-54576669D01*
X149440140Y-54576674D01*
X149321321Y-54656067D01*
X149321317Y-54656070D01*
X149220270Y-54757117D01*
X149220267Y-54757121D01*
X149140874Y-54875940D01*
X149140869Y-54875949D01*
X149086181Y-55007979D01*
X149086179Y-55007985D01*
X149058300Y-55148142D01*
X149058300Y-55148145D01*
X149058300Y-55291055D01*
X149058300Y-55291057D01*
X149058299Y-55291057D01*
X148756700Y-55291057D01*
X148756700Y-55173545D01*
X148728819Y-55033380D01*
X148674129Y-54901347D01*
X148674128Y-54901346D01*
X148674125Y-54901340D01*
X148594732Y-54782521D01*
X148594729Y-54782517D01*
X148493682Y-54681470D01*
X148493678Y-54681467D01*
X148374859Y-54602074D01*
X148374850Y-54602069D01*
X148242820Y-54547381D01*
X148242814Y-54547379D01*
X148102657Y-54519500D01*
X148102655Y-54519500D01*
X147959745Y-54519500D01*
X147959743Y-54519500D01*
X147819585Y-54547379D01*
X147819579Y-54547381D01*
X147687549Y-54602069D01*
X147687540Y-54602074D01*
X147568721Y-54681467D01*
X147568717Y-54681470D01*
X147467670Y-54782517D01*
X147467667Y-54782521D01*
X147388274Y-54901340D01*
X147388269Y-54901349D01*
X147333581Y-55033379D01*
X147333579Y-55033385D01*
X147305700Y-55173542D01*
X147305700Y-55173545D01*
X147305700Y-55316455D01*
X147305700Y-55316457D01*
X147305699Y-55316457D01*
X147029500Y-55316457D01*
X147029500Y-55224345D01*
X147029500Y-55224342D01*
X147029499Y-55224340D01*
X147022996Y-55191644D01*
X147001620Y-55084185D01*
X147001619Y-55084184D01*
X147001619Y-55084180D01*
X146946929Y-54952147D01*
X146946928Y-54952146D01*
X146946925Y-54952140D01*
X146867532Y-54833321D01*
X146867529Y-54833317D01*
X146766482Y-54732270D01*
X146766478Y-54732267D01*
X146647659Y-54652874D01*
X146647650Y-54652869D01*
X146515620Y-54598181D01*
X146515614Y-54598179D01*
X146375457Y-54570300D01*
X146375455Y-54570300D01*
X146232545Y-54570300D01*
X146232543Y-54570300D01*
X146092385Y-54598179D01*
X146092379Y-54598181D01*
X145960349Y-54652869D01*
X145960340Y-54652874D01*
X145841521Y-54732267D01*
X145841517Y-54732270D01*
X145740470Y-54833317D01*
X145740467Y-54833321D01*
X145661074Y-54952140D01*
X145661069Y-54952149D01*
X145606381Y-55084179D01*
X145606379Y-55084185D01*
X145578500Y-55224342D01*
X145578500Y-55224345D01*
X145578500Y-55367255D01*
X145578500Y-55367257D01*
X145578499Y-55367257D01*
X145246447Y-55367257D01*
X145248205Y-55358419D01*
X145251500Y-55341857D01*
X145251500Y-55198942D01*
X145223620Y-55058785D01*
X145223619Y-55058784D01*
X145223619Y-55058780D01*
X145168929Y-54926747D01*
X145168928Y-54926746D01*
X145168925Y-54926740D01*
X145089532Y-54807921D01*
X145089529Y-54807917D01*
X144988482Y-54706870D01*
X144988478Y-54706867D01*
X144869659Y-54627474D01*
X144869650Y-54627469D01*
X144737620Y-54572781D01*
X144737614Y-54572779D01*
X144597457Y-54544900D01*
X144597455Y-54544900D01*
X144454545Y-54544900D01*
X144454543Y-54544900D01*
X144314385Y-54572779D01*
X144314379Y-54572781D01*
X144182349Y-54627469D01*
X144182340Y-54627474D01*
X144063521Y-54706867D01*
X144063517Y-54706870D01*
X143962470Y-54807917D01*
X143962467Y-54807921D01*
X143883074Y-54926740D01*
X143883069Y-54926749D01*
X143828381Y-55058779D01*
X143828379Y-55058785D01*
X143800500Y-55198942D01*
X143800500Y-55198945D01*
X143800500Y-55341855D01*
X143800500Y-55341857D01*
X143800499Y-55341857D01*
X143498900Y-55341857D01*
X143498900Y-55198942D01*
X143471020Y-55058785D01*
X143471019Y-55058784D01*
X143471019Y-55058780D01*
X143416329Y-54926747D01*
X143416328Y-54926746D01*
X143416325Y-54926740D01*
X143336932Y-54807921D01*
X143336929Y-54807917D01*
X143235882Y-54706870D01*
X143235878Y-54706867D01*
X143117059Y-54627474D01*
X143117050Y-54627469D01*
X142985020Y-54572781D01*
X142985014Y-54572779D01*
X142844857Y-54544900D01*
X142844855Y-54544900D01*
X142701945Y-54544900D01*
X142701943Y-54544900D01*
X142561785Y-54572779D01*
X142561779Y-54572781D01*
X142429749Y-54627469D01*
X142429740Y-54627474D01*
X142310921Y-54706867D01*
X142310917Y-54706870D01*
X142209870Y-54807917D01*
X142209867Y-54807921D01*
X142130474Y-54926740D01*
X142130469Y-54926749D01*
X142075781Y-55058779D01*
X142075779Y-55058785D01*
X142047900Y-55198942D01*
X142047900Y-55198945D01*
X142047900Y-55341855D01*
X142047900Y-55341857D01*
X142047899Y-55341857D01*
X141746300Y-55341857D01*
X141746300Y-55198942D01*
X141718420Y-55058785D01*
X141718419Y-55058784D01*
X141718419Y-55058780D01*
X141663729Y-54926747D01*
X141663728Y-54926746D01*
X141663725Y-54926740D01*
X141584332Y-54807921D01*
X141584329Y-54807917D01*
X141483282Y-54706870D01*
X141483278Y-54706867D01*
X141364459Y-54627474D01*
X141364450Y-54627469D01*
X141232420Y-54572781D01*
X141232414Y-54572779D01*
X141092257Y-54544900D01*
X141092255Y-54544900D01*
X140949345Y-54544900D01*
X140949343Y-54544900D01*
X140809185Y-54572779D01*
X140809179Y-54572781D01*
X140677149Y-54627469D01*
X140677140Y-54627474D01*
X140558321Y-54706867D01*
X140558317Y-54706870D01*
X140457270Y-54807917D01*
X140457267Y-54807921D01*
X140377874Y-54926740D01*
X140377869Y-54926749D01*
X140323181Y-55058779D01*
X140323179Y-55058785D01*
X140295300Y-55198942D01*
X140295300Y-55198945D01*
X140295300Y-55341855D01*
X140295300Y-55341857D01*
X140295299Y-55341857D01*
X140019100Y-55341857D01*
X140019100Y-55249742D01*
X140019099Y-55249740D01*
X140012596Y-55217044D01*
X139991220Y-55109585D01*
X139991219Y-55109584D01*
X139991219Y-55109580D01*
X139936529Y-54977547D01*
X139936528Y-54977546D01*
X139936525Y-54977540D01*
X139857132Y-54858721D01*
X139857129Y-54858717D01*
X139756082Y-54757670D01*
X139756078Y-54757667D01*
X139637259Y-54678274D01*
X139637250Y-54678269D01*
X139505220Y-54623581D01*
X139505214Y-54623579D01*
X139365057Y-54595700D01*
X139365055Y-54595700D01*
X139222145Y-54595700D01*
X139222143Y-54595700D01*
X139081985Y-54623579D01*
X139081975Y-54623582D01*
X138956170Y-54675692D01*
X138886701Y-54683161D01*
X138824222Y-54651885D01*
X138794157Y-54608584D01*
X138768130Y-54545749D01*
X138768125Y-54545740D01*
X138688732Y-54426921D01*
X138688729Y-54426917D01*
X138587682Y-54325870D01*
X138587678Y-54325867D01*
X138468859Y-54246474D01*
X138468850Y-54246469D01*
X138336820Y-54191781D01*
X138336814Y-54191779D01*
X138196657Y-54163900D01*
X138196655Y-54163900D01*
X138053745Y-54163900D01*
X138053743Y-54163900D01*
X137913585Y-54191779D01*
X137913579Y-54191781D01*
X137781549Y-54246469D01*
X137781540Y-54246474D01*
X137662721Y-54325867D01*
X137662717Y-54325870D01*
X137561670Y-54426917D01*
X137561667Y-54426921D01*
X137482274Y-54545740D01*
X137482269Y-54545749D01*
X137427581Y-54677779D01*
X137427579Y-54677785D01*
X137399700Y-54817942D01*
X137399700Y-54817945D01*
X137399700Y-54960855D01*
X137399700Y-54960857D01*
X137399699Y-54960857D01*
X132432258Y-54960857D01*
X132418129Y-54926747D01*
X132381825Y-54872414D01*
X132338732Y-54807920D01*
X132237682Y-54706870D01*
X132237678Y-54706867D01*
X132118859Y-54627474D01*
X132118850Y-54627469D01*
X131986820Y-54572781D01*
X131986814Y-54572779D01*
X131846657Y-54544900D01*
X131846655Y-54544900D01*
X131703745Y-54544900D01*
X131703743Y-54544900D01*
X131563585Y-54572779D01*
X131563579Y-54572781D01*
X131431549Y-54627469D01*
X131431540Y-54627474D01*
X131312721Y-54706867D01*
X131312717Y-54706870D01*
X131211670Y-54807917D01*
X131211667Y-54807921D01*
X131132274Y-54926740D01*
X131132269Y-54926749D01*
X131077581Y-55058779D01*
X131077579Y-55058785D01*
X131049700Y-55198942D01*
X131049700Y-55198945D01*
X131049700Y-55341855D01*
X131049700Y-55341857D01*
X131049699Y-55341857D01*
X130300500Y-55341857D01*
X130300500Y-52928857D01*
X156475099Y-52928857D01*
X156502979Y-53069014D01*
X156502981Y-53069020D01*
X156557669Y-53201050D01*
X156557674Y-53201059D01*
X156637067Y-53319878D01*
X156637070Y-53319882D01*
X156738117Y-53420929D01*
X156738121Y-53420932D01*
X156856940Y-53500325D01*
X156856946Y-53500328D01*
X156856947Y-53500329D01*
X156988980Y-53555019D01*
X156988984Y-53555019D01*
X156988985Y-53555020D01*
X157129142Y-53582900D01*
X157129145Y-53582900D01*
X157272057Y-53582900D01*
X157366351Y-53564142D01*
X157412220Y-53555019D01*
X157544253Y-53500329D01*
X157663079Y-53420932D01*
X157764132Y-53319879D01*
X157843529Y-53201053D01*
X157898219Y-53069020D01*
X157926100Y-52928855D01*
X157926100Y-52785945D01*
X157926100Y-52785942D01*
X157898220Y-52645785D01*
X157898219Y-52645784D01*
X157898219Y-52645780D01*
X157843529Y-52513747D01*
X157843528Y-52513746D01*
X157843525Y-52513740D01*
X157764132Y-52394921D01*
X157764129Y-52394917D01*
X157663082Y-52293870D01*
X157663078Y-52293867D01*
X157544259Y-52214474D01*
X157544250Y-52214469D01*
X157412220Y-52159781D01*
X157412214Y-52159779D01*
X157272057Y-52131900D01*
X157272055Y-52131900D01*
X157129145Y-52131900D01*
X157129143Y-52131900D01*
X156988985Y-52159779D01*
X156988979Y-52159781D01*
X156856949Y-52214469D01*
X156856940Y-52214474D01*
X156738121Y-52293867D01*
X156738117Y-52293870D01*
X156637070Y-52394917D01*
X156637067Y-52394921D01*
X156557674Y-52513740D01*
X156557669Y-52513749D01*
X156502981Y-52645779D01*
X156502979Y-52645785D01*
X156475100Y-52785942D01*
X156475100Y-52785945D01*
X156475100Y-52928855D01*
X156475100Y-52928857D01*
X156475099Y-52928857D01*
X130300500Y-52928857D01*
X130300500Y-51430257D01*
X131049699Y-51430257D01*
X131077579Y-51570414D01*
X131077581Y-51570420D01*
X131132269Y-51702450D01*
X131132274Y-51702459D01*
X131211667Y-51821278D01*
X131211670Y-51821282D01*
X131312717Y-51922329D01*
X131312721Y-51922332D01*
X131431540Y-52001725D01*
X131431549Y-52001730D01*
X131461458Y-52014118D01*
X131563580Y-52056419D01*
X131563584Y-52056419D01*
X131563585Y-52056420D01*
X131703742Y-52084300D01*
X131703745Y-52084300D01*
X131846657Y-52084300D01*
X131940951Y-52065542D01*
X131986820Y-52056419D01*
X132118853Y-52001729D01*
X132137818Y-51989057D01*
X140904899Y-51989057D01*
X140932779Y-52129214D01*
X140932781Y-52129220D01*
X140987469Y-52261250D01*
X140987474Y-52261259D01*
X141066867Y-52380078D01*
X141066870Y-52380082D01*
X141167917Y-52481129D01*
X141167921Y-52481132D01*
X141286740Y-52560525D01*
X141286746Y-52560528D01*
X141286747Y-52560529D01*
X141418780Y-52615219D01*
X141418784Y-52615219D01*
X141418785Y-52615220D01*
X141558942Y-52643100D01*
X141558945Y-52643100D01*
X141701857Y-52643100D01*
X141796151Y-52624342D01*
X141842020Y-52615219D01*
X141974053Y-52560529D01*
X142092879Y-52481132D01*
X142193932Y-52380079D01*
X142273329Y-52261253D01*
X142328019Y-52129220D01*
X142342500Y-52056419D01*
X142355900Y-51989057D01*
X149032899Y-51989057D01*
X149060779Y-52129214D01*
X149060781Y-52129220D01*
X149115469Y-52261250D01*
X149115474Y-52261259D01*
X149194867Y-52380078D01*
X149194870Y-52380082D01*
X149295917Y-52481129D01*
X149295921Y-52481132D01*
X149414740Y-52560525D01*
X149414746Y-52560528D01*
X149414747Y-52560529D01*
X149546780Y-52615219D01*
X149546784Y-52615219D01*
X149546785Y-52615220D01*
X149686942Y-52643100D01*
X149686945Y-52643100D01*
X149829857Y-52643100D01*
X149924151Y-52624342D01*
X149970020Y-52615219D01*
X150102053Y-52560529D01*
X150220879Y-52481132D01*
X150321932Y-52380079D01*
X150401329Y-52261253D01*
X150456019Y-52129220D01*
X150470500Y-52056419D01*
X150483900Y-51989057D01*
X150483900Y-51846142D01*
X150456020Y-51705985D01*
X150456019Y-51705984D01*
X150456019Y-51705980D01*
X150401329Y-51573947D01*
X150401328Y-51573946D01*
X150401325Y-51573940D01*
X150321932Y-51455121D01*
X150321929Y-51455117D01*
X150220882Y-51354070D01*
X150220878Y-51354067D01*
X150102059Y-51274674D01*
X150102050Y-51274669D01*
X149970020Y-51219981D01*
X149970014Y-51219979D01*
X149829857Y-51192100D01*
X149829855Y-51192100D01*
X149686945Y-51192100D01*
X149686943Y-51192100D01*
X149546785Y-51219979D01*
X149546779Y-51219981D01*
X149414749Y-51274669D01*
X149414740Y-51274674D01*
X149295921Y-51354067D01*
X149295917Y-51354070D01*
X149194870Y-51455117D01*
X149194867Y-51455121D01*
X149115474Y-51573940D01*
X149115469Y-51573949D01*
X149060781Y-51705979D01*
X149060779Y-51705985D01*
X149032900Y-51846142D01*
X149032900Y-51846145D01*
X149032900Y-51989055D01*
X149032900Y-51989057D01*
X149032899Y-51989057D01*
X142355900Y-51989057D01*
X142355900Y-51846142D01*
X142328020Y-51705985D01*
X142328019Y-51705984D01*
X142328019Y-51705980D01*
X142273329Y-51573947D01*
X142273328Y-51573946D01*
X142273325Y-51573940D01*
X142193932Y-51455121D01*
X142193929Y-51455117D01*
X142092882Y-51354070D01*
X142092878Y-51354067D01*
X141974059Y-51274674D01*
X141974050Y-51274669D01*
X141842020Y-51219981D01*
X141842014Y-51219979D01*
X141701857Y-51192100D01*
X141701855Y-51192100D01*
X141558945Y-51192100D01*
X141558943Y-51192100D01*
X141418785Y-51219979D01*
X141418779Y-51219981D01*
X141286749Y-51274669D01*
X141286740Y-51274674D01*
X141167921Y-51354067D01*
X141167917Y-51354070D01*
X141066870Y-51455117D01*
X141066867Y-51455121D01*
X140987474Y-51573940D01*
X140987469Y-51573949D01*
X140932781Y-51705979D01*
X140932779Y-51705985D01*
X140904900Y-51846142D01*
X140904900Y-51846145D01*
X140904900Y-51989055D01*
X140904900Y-51989057D01*
X140904899Y-51989057D01*
X132137818Y-51989057D01*
X132237679Y-51922332D01*
X132338732Y-51821279D01*
X132355021Y-51796901D01*
X132372220Y-51771162D01*
X132418125Y-51702459D01*
X132418125Y-51702458D01*
X132418129Y-51702453D01*
X132472819Y-51570420D01*
X132500700Y-51430255D01*
X132500700Y-51287345D01*
X132500700Y-51287342D01*
X132472820Y-51147185D01*
X132472819Y-51147184D01*
X132472819Y-51147180D01*
X132418129Y-51015147D01*
X132418128Y-51015146D01*
X132418125Y-51015140D01*
X132338732Y-50896321D01*
X132338729Y-50896317D01*
X132237682Y-50795270D01*
X132237678Y-50795267D01*
X132118859Y-50715874D01*
X132118850Y-50715869D01*
X131986820Y-50661181D01*
X131986814Y-50661179D01*
X131846657Y-50633300D01*
X131846655Y-50633300D01*
X131703745Y-50633300D01*
X131703743Y-50633300D01*
X131563585Y-50661179D01*
X131563579Y-50661181D01*
X131431549Y-50715869D01*
X131431540Y-50715874D01*
X131312721Y-50795267D01*
X131312717Y-50795270D01*
X131211670Y-50896317D01*
X131211667Y-50896321D01*
X131132274Y-51015140D01*
X131132269Y-51015149D01*
X131077581Y-51147179D01*
X131077579Y-51147185D01*
X131049700Y-51287342D01*
X131049700Y-51287345D01*
X131049700Y-51430255D01*
X131049700Y-51430257D01*
X131049699Y-51430257D01*
X130300500Y-51430257D01*
X130300500Y-49424625D01*
X130320185Y-49357586D01*
X130372989Y-49311831D01*
X130442147Y-49301887D01*
X130505703Y-49330912D01*
X130512181Y-49336944D01*
X130640927Y-49465690D01*
X130793801Y-49576760D01*
X130873347Y-49617290D01*
X130962163Y-49662545D01*
X130962165Y-49662545D01*
X130962168Y-49662547D01*
X131058497Y-49693846D01*
X131141881Y-49720940D01*
X131328514Y-49750500D01*
X131328519Y-49750500D01*
X131517486Y-49750500D01*
X131704118Y-49720940D01*
X131883832Y-49662547D01*
X132052199Y-49576760D01*
X132205073Y-49465690D01*
X132338690Y-49332073D01*
X132449760Y-49179199D01*
X132535547Y-49010832D01*
X132593940Y-48831118D01*
X132609215Y-48734674D01*
X132623500Y-48644486D01*
X132623500Y-48455513D01*
X135322500Y-48455513D01*
X135322500Y-48644486D01*
X135352059Y-48831118D01*
X135410454Y-49010836D01*
X135489504Y-49165979D01*
X135496240Y-49179199D01*
X135607310Y-49332073D01*
X135740927Y-49465690D01*
X135893801Y-49576760D01*
X135973347Y-49617290D01*
X136062163Y-49662545D01*
X136062165Y-49662545D01*
X136062168Y-49662547D01*
X136158497Y-49693846D01*
X136241881Y-49720940D01*
X136428514Y-49750500D01*
X136428519Y-49750500D01*
X136617486Y-49750500D01*
X136804118Y-49720940D01*
X136983832Y-49662547D01*
X137152199Y-49576760D01*
X137305073Y-49465690D01*
X137321706Y-49449057D01*
X150150499Y-49449057D01*
X150178379Y-49589214D01*
X150178381Y-49589220D01*
X150233069Y-49721250D01*
X150233074Y-49721259D01*
X150312467Y-49840078D01*
X150312470Y-49840082D01*
X150413517Y-49941129D01*
X150413521Y-49941132D01*
X150532340Y-50020525D01*
X150532346Y-50020528D01*
X150532347Y-50020529D01*
X150664380Y-50075219D01*
X150664384Y-50075219D01*
X150664385Y-50075220D01*
X150804542Y-50103100D01*
X150804545Y-50103100D01*
X150947457Y-50103100D01*
X151041751Y-50084342D01*
X151087620Y-50075219D01*
X151219653Y-50020529D01*
X151338479Y-49941132D01*
X151439532Y-49840079D01*
X151518929Y-49721253D01*
X151573619Y-49589220D01*
X151601500Y-49449057D01*
X157414899Y-49449057D01*
X157442779Y-49589214D01*
X157442781Y-49589220D01*
X157497469Y-49721250D01*
X157497474Y-49721259D01*
X157576867Y-49840078D01*
X157576870Y-49840082D01*
X157677917Y-49941129D01*
X157677921Y-49941132D01*
X157796740Y-50020525D01*
X157796746Y-50020528D01*
X157796747Y-50020529D01*
X157928780Y-50075219D01*
X157928784Y-50075219D01*
X157928785Y-50075220D01*
X158068942Y-50103100D01*
X158068945Y-50103100D01*
X158211857Y-50103100D01*
X158306151Y-50084342D01*
X158352020Y-50075219D01*
X158484053Y-50020529D01*
X158602879Y-49941132D01*
X158703932Y-49840079D01*
X158783329Y-49721253D01*
X158838019Y-49589220D01*
X158865900Y-49449055D01*
X158865900Y-49306145D01*
X158865900Y-49306142D01*
X158838020Y-49165985D01*
X158838019Y-49165984D01*
X158838019Y-49165980D01*
X158783329Y-49033947D01*
X158783328Y-49033946D01*
X158783325Y-49033940D01*
X158703932Y-48915121D01*
X158703929Y-48915117D01*
X158602882Y-48814070D01*
X158602878Y-48814067D01*
X158484059Y-48734674D01*
X158484050Y-48734669D01*
X158352020Y-48679981D01*
X158352014Y-48679979D01*
X158211857Y-48652100D01*
X158211855Y-48652100D01*
X158068945Y-48652100D01*
X158068943Y-48652100D01*
X157928785Y-48679979D01*
X157928779Y-48679981D01*
X157796749Y-48734669D01*
X157796740Y-48734674D01*
X157677921Y-48814067D01*
X157677917Y-48814070D01*
X157576870Y-48915117D01*
X157576867Y-48915121D01*
X157497474Y-49033940D01*
X157497469Y-49033949D01*
X157442781Y-49165979D01*
X157442779Y-49165985D01*
X157414900Y-49306142D01*
X157414900Y-49306145D01*
X157414900Y-49449055D01*
X157414900Y-49449057D01*
X157414899Y-49449057D01*
X151601500Y-49449057D01*
X151601500Y-49449055D01*
X151601500Y-49306145D01*
X151601500Y-49306142D01*
X151573620Y-49165985D01*
X151573619Y-49165984D01*
X151573619Y-49165980D01*
X151518929Y-49033947D01*
X151518928Y-49033946D01*
X151518925Y-49033940D01*
X151439532Y-48915121D01*
X151439529Y-48915117D01*
X151338482Y-48814070D01*
X151338478Y-48814067D01*
X151219659Y-48734674D01*
X151219650Y-48734669D01*
X151087620Y-48679981D01*
X151087614Y-48679979D01*
X150947457Y-48652100D01*
X150947455Y-48652100D01*
X150804545Y-48652100D01*
X150804543Y-48652100D01*
X150664385Y-48679979D01*
X150664379Y-48679981D01*
X150532349Y-48734669D01*
X150532340Y-48734674D01*
X150413521Y-48814067D01*
X150413517Y-48814070D01*
X150312470Y-48915117D01*
X150312467Y-48915121D01*
X150233074Y-49033940D01*
X150233069Y-49033949D01*
X150178381Y-49165979D01*
X150178379Y-49165985D01*
X150150500Y-49306142D01*
X150150500Y-49306145D01*
X150150500Y-49449055D01*
X150150500Y-49449057D01*
X150150499Y-49449057D01*
X137321706Y-49449057D01*
X137438690Y-49332073D01*
X137549760Y-49179199D01*
X137635547Y-49010832D01*
X137693940Y-48831118D01*
X137709215Y-48734674D01*
X137723500Y-48644486D01*
X137723500Y-48455513D01*
X163190300Y-48455513D01*
X163190300Y-48644486D01*
X163219859Y-48831118D01*
X163278254Y-49010836D01*
X163357304Y-49165979D01*
X163364040Y-49179199D01*
X163475110Y-49332073D01*
X163608727Y-49465690D01*
X163761601Y-49576760D01*
X163841147Y-49617290D01*
X163929963Y-49662545D01*
X163929965Y-49662545D01*
X163929968Y-49662547D01*
X164026297Y-49693846D01*
X164109681Y-49720940D01*
X164296314Y-49750500D01*
X164296319Y-49750500D01*
X164485286Y-49750500D01*
X164671918Y-49720940D01*
X164851632Y-49662547D01*
X165019999Y-49576760D01*
X165172873Y-49465690D01*
X165306490Y-49332073D01*
X165417560Y-49179199D01*
X165503347Y-49010832D01*
X165561740Y-48831118D01*
X165577015Y-48734674D01*
X165591300Y-48644486D01*
X165591300Y-48455513D01*
X165561740Y-48268881D01*
X165534646Y-48185497D01*
X165503347Y-48089168D01*
X165503345Y-48089165D01*
X165503345Y-48089163D01*
X165417559Y-47920800D01*
X165306490Y-47767927D01*
X165172873Y-47634310D01*
X165019999Y-47523240D01*
X164851636Y-47437454D01*
X164671918Y-47379059D01*
X164485286Y-47349500D01*
X164485281Y-47349500D01*
X164296319Y-47349500D01*
X164296314Y-47349500D01*
X164109681Y-47379059D01*
X163929963Y-47437454D01*
X163761600Y-47523240D01*
X163674379Y-47586610D01*
X163608727Y-47634310D01*
X163608725Y-47634312D01*
X163608724Y-47634312D01*
X163475112Y-47767924D01*
X163475112Y-47767925D01*
X163475110Y-47767927D01*
X163459373Y-47789587D01*
X163364040Y-47920800D01*
X163278254Y-48089163D01*
X163219859Y-48268881D01*
X163190300Y-48455513D01*
X137723500Y-48455513D01*
X137693940Y-48268881D01*
X137666846Y-48185497D01*
X137635547Y-48089168D01*
X137635545Y-48089165D01*
X137635545Y-48089163D01*
X137549759Y-47920800D01*
X137438690Y-47767927D01*
X137305073Y-47634310D01*
X137152199Y-47523240D01*
X136983836Y-47437454D01*
X136804118Y-47379059D01*
X136617486Y-47349500D01*
X136617481Y-47349500D01*
X136428519Y-47349500D01*
X136428514Y-47349500D01*
X136241881Y-47379059D01*
X136062163Y-47437454D01*
X135893800Y-47523240D01*
X135806579Y-47586610D01*
X135740927Y-47634310D01*
X135740925Y-47634312D01*
X135740924Y-47634312D01*
X135607312Y-47767924D01*
X135607312Y-47767925D01*
X135607310Y-47767927D01*
X135591573Y-47789587D01*
X135496240Y-47920800D01*
X135410454Y-48089163D01*
X135352059Y-48268881D01*
X135322500Y-48455513D01*
X132623500Y-48455513D01*
X132593940Y-48268881D01*
X132566846Y-48185497D01*
X132535547Y-48089168D01*
X132535545Y-48089165D01*
X132535545Y-48089163D01*
X132449759Y-47920800D01*
X132338690Y-47767927D01*
X132205073Y-47634310D01*
X132052199Y-47523240D01*
X131883836Y-47437454D01*
X131704118Y-47379059D01*
X131517486Y-47349500D01*
X131517481Y-47349500D01*
X131328519Y-47349500D01*
X131328514Y-47349500D01*
X131141881Y-47379059D01*
X130962163Y-47437454D01*
X130793800Y-47523240D01*
X130706579Y-47586610D01*
X130640927Y-47634310D01*
X130640925Y-47634312D01*
X130640924Y-47634312D01*
X130512181Y-47763056D01*
X130450858Y-47796541D01*
X130381166Y-47791557D01*
X130325233Y-47749685D01*
X130300816Y-47684221D01*
X130300500Y-47675375D01*
X130300500Y-45905513D01*
X132772500Y-45905513D01*
X132772500Y-46094486D01*
X132802059Y-46281118D01*
X132860454Y-46460836D01*
X132946240Y-46629199D01*
X133057310Y-46782073D01*
X133190927Y-46915690D01*
X133343801Y-47026760D01*
X133423347Y-47067290D01*
X133512163Y-47112545D01*
X133512165Y-47112545D01*
X133512168Y-47112547D01*
X133608497Y-47143846D01*
X133691881Y-47170940D01*
X133878514Y-47200500D01*
X133878519Y-47200500D01*
X134067486Y-47200500D01*
X134254118Y-47170940D01*
X134433832Y-47112547D01*
X134602199Y-47026760D01*
X134755073Y-46915690D01*
X134888690Y-46782073D01*
X134999427Y-46629657D01*
X141616099Y-46629657D01*
X141643979Y-46769814D01*
X141643981Y-46769820D01*
X141698669Y-46901850D01*
X141698674Y-46901859D01*
X141778067Y-47020678D01*
X141778070Y-47020682D01*
X141879117Y-47121729D01*
X141879121Y-47121732D01*
X141997940Y-47201125D01*
X141997946Y-47201128D01*
X141997947Y-47201129D01*
X142129980Y-47255819D01*
X142129984Y-47255819D01*
X142129985Y-47255820D01*
X142270142Y-47283700D01*
X142270145Y-47283700D01*
X142413057Y-47283700D01*
X142507351Y-47264942D01*
X142553220Y-47255819D01*
X142685253Y-47201129D01*
X142804079Y-47121732D01*
X142905132Y-47020679D01*
X142984529Y-46901853D01*
X143039219Y-46769820D01*
X143067100Y-46629655D01*
X143067100Y-46486745D01*
X143067100Y-46486742D01*
X143039220Y-46346585D01*
X143039219Y-46346584D01*
X143039219Y-46346580D01*
X142984529Y-46214547D01*
X142984528Y-46214546D01*
X142984525Y-46214540D01*
X142905132Y-46095721D01*
X142905129Y-46095717D01*
X142804082Y-45994670D01*
X142804078Y-45994667D01*
X142685259Y-45915274D01*
X142685250Y-45915269D01*
X142553220Y-45860581D01*
X142553214Y-45860579D01*
X142413057Y-45832700D01*
X142413055Y-45832700D01*
X142270145Y-45832700D01*
X142270143Y-45832700D01*
X142129985Y-45860579D01*
X142129979Y-45860581D01*
X141997949Y-45915269D01*
X141997940Y-45915274D01*
X141879121Y-45994667D01*
X141879117Y-45994670D01*
X141778070Y-46095717D01*
X141778067Y-46095721D01*
X141698674Y-46214540D01*
X141698669Y-46214549D01*
X141643981Y-46346579D01*
X141643979Y-46346585D01*
X141616100Y-46486742D01*
X141616100Y-46486745D01*
X141616100Y-46629655D01*
X141616100Y-46629657D01*
X141616099Y-46629657D01*
X134999427Y-46629657D01*
X134999760Y-46629199D01*
X135085547Y-46460832D01*
X135143940Y-46281118D01*
X135146458Y-46265218D01*
X135173500Y-46094486D01*
X135173500Y-45905513D01*
X135143940Y-45718881D01*
X135118003Y-45639057D01*
X149134499Y-45639057D01*
X149162379Y-45779214D01*
X149162381Y-45779220D01*
X149217069Y-45911250D01*
X149217074Y-45911259D01*
X149296467Y-46030078D01*
X149296470Y-46030082D01*
X149397517Y-46131129D01*
X149397521Y-46131132D01*
X149516340Y-46210525D01*
X149516346Y-46210528D01*
X149516347Y-46210529D01*
X149648380Y-46265219D01*
X149648384Y-46265219D01*
X149648385Y-46265220D01*
X149788542Y-46293100D01*
X149788545Y-46293100D01*
X149931457Y-46293100D01*
X150025751Y-46274342D01*
X150071620Y-46265219D01*
X150203653Y-46210529D01*
X150322479Y-46131132D01*
X150423532Y-46030079D01*
X150502929Y-45911253D01*
X150505307Y-45905513D01*
X165740300Y-45905513D01*
X165740300Y-46094486D01*
X165769859Y-46281118D01*
X165828254Y-46460836D01*
X165914040Y-46629199D01*
X166025110Y-46782073D01*
X166158727Y-46915690D01*
X166311601Y-47026760D01*
X166391147Y-47067290D01*
X166479963Y-47112545D01*
X166479965Y-47112545D01*
X166479968Y-47112547D01*
X166576297Y-47143846D01*
X166659681Y-47170940D01*
X166846314Y-47200500D01*
X166846319Y-47200500D01*
X167035286Y-47200500D01*
X167221918Y-47170940D01*
X167401632Y-47112547D01*
X167569999Y-47026760D01*
X167722873Y-46915690D01*
X167856490Y-46782073D01*
X167967560Y-46629199D01*
X168053347Y-46460832D01*
X168111740Y-46281118D01*
X168114258Y-46265218D01*
X168141300Y-46094486D01*
X168141300Y-45905513D01*
X168111740Y-45718881D01*
X168053345Y-45539163D01*
X167967559Y-45370800D01*
X167956795Y-45355985D01*
X167856490Y-45217927D01*
X167722873Y-45084310D01*
X167569999Y-44973240D01*
X167401636Y-44887454D01*
X167221918Y-44829059D01*
X167035286Y-44799500D01*
X167035281Y-44799500D01*
X166846319Y-44799500D01*
X166846314Y-44799500D01*
X166659681Y-44829059D01*
X166479963Y-44887454D01*
X166311600Y-44973240D01*
X166269171Y-45004067D01*
X166158727Y-45084310D01*
X166158725Y-45084312D01*
X166158724Y-45084312D01*
X166025112Y-45217924D01*
X166025112Y-45217925D01*
X166025110Y-45217927D01*
X166020735Y-45223949D01*
X165914040Y-45370800D01*
X165828254Y-45539163D01*
X165769859Y-45718881D01*
X165740300Y-45905513D01*
X150505307Y-45905513D01*
X150557619Y-45779220D01*
X150585500Y-45639055D01*
X150585500Y-45496145D01*
X150585500Y-45496142D01*
X150557620Y-45355985D01*
X150557619Y-45355984D01*
X150557619Y-45355980D01*
X150502929Y-45223947D01*
X150502928Y-45223946D01*
X150502925Y-45223940D01*
X150423532Y-45105121D01*
X150423529Y-45105117D01*
X150322482Y-45004070D01*
X150322478Y-45004067D01*
X150203659Y-44924674D01*
X150203650Y-44924669D01*
X150071620Y-44869981D01*
X150071614Y-44869979D01*
X149931457Y-44842100D01*
X149931455Y-44842100D01*
X149788545Y-44842100D01*
X149788543Y-44842100D01*
X149648385Y-44869979D01*
X149648379Y-44869981D01*
X149516349Y-44924669D01*
X149516340Y-44924674D01*
X149397521Y-45004067D01*
X149397517Y-45004070D01*
X149296470Y-45105117D01*
X149296467Y-45105121D01*
X149217074Y-45223940D01*
X149217069Y-45223949D01*
X149162381Y-45355979D01*
X149162379Y-45355985D01*
X149134500Y-45496142D01*
X149134500Y-45496145D01*
X149134500Y-45639055D01*
X149134500Y-45639057D01*
X149134499Y-45639057D01*
X135118003Y-45639057D01*
X135085545Y-45539163D01*
X134999759Y-45370800D01*
X134988995Y-45355985D01*
X134888690Y-45217927D01*
X134755073Y-45084310D01*
X134602199Y-44973240D01*
X134433836Y-44887454D01*
X134254118Y-44829059D01*
X134067486Y-44799500D01*
X134067481Y-44799500D01*
X133878519Y-44799500D01*
X133878514Y-44799500D01*
X133691881Y-44829059D01*
X133512163Y-44887454D01*
X133343800Y-44973240D01*
X133301371Y-45004067D01*
X133190927Y-45084310D01*
X133190925Y-45084312D01*
X133190924Y-45084312D01*
X133057312Y-45217924D01*
X133057312Y-45217925D01*
X133057310Y-45217927D01*
X133052935Y-45223949D01*
X132946240Y-45370800D01*
X132860454Y-45539163D01*
X132802059Y-45718881D01*
X132772500Y-45905513D01*
X130300500Y-45905513D01*
X130300500Y-44324625D01*
X130320185Y-44257586D01*
X130372989Y-44211831D01*
X130442147Y-44201887D01*
X130505703Y-44230912D01*
X130512181Y-44236944D01*
X130640927Y-44365690D01*
X130793801Y-44476760D01*
X130873347Y-44517290D01*
X130962163Y-44562545D01*
X130962165Y-44562545D01*
X130962168Y-44562547D01*
X131058497Y-44593846D01*
X131141881Y-44620940D01*
X131328514Y-44650500D01*
X131328519Y-44650500D01*
X131517486Y-44650500D01*
X131704118Y-44620940D01*
X131883832Y-44562547D01*
X132052199Y-44476760D01*
X132205073Y-44365690D01*
X132338690Y-44232073D01*
X132449760Y-44079199D01*
X132535547Y-43910832D01*
X132593940Y-43731118D01*
X132607559Y-43645130D01*
X132623500Y-43544486D01*
X132623500Y-43355513D01*
X135322500Y-43355513D01*
X135322500Y-43544486D01*
X135352059Y-43731118D01*
X135410454Y-43910836D01*
X135472014Y-44031653D01*
X135496240Y-44079199D01*
X135607310Y-44232073D01*
X135740927Y-44365690D01*
X135893801Y-44476760D01*
X135973347Y-44517290D01*
X136062163Y-44562545D01*
X136062165Y-44562545D01*
X136062168Y-44562547D01*
X136158497Y-44593846D01*
X136241881Y-44620940D01*
X136428514Y-44650500D01*
X136428519Y-44650500D01*
X136617486Y-44650500D01*
X136804118Y-44620940D01*
X136983832Y-44562547D01*
X137152199Y-44476760D01*
X137305073Y-44365690D01*
X137438690Y-44232073D01*
X137549760Y-44079199D01*
X137635547Y-43910832D01*
X137684732Y-43759457D01*
X138263299Y-43759457D01*
X138291179Y-43899614D01*
X138291181Y-43899620D01*
X138345869Y-44031650D01*
X138345874Y-44031659D01*
X138425267Y-44150478D01*
X138425270Y-44150482D01*
X138526317Y-44251529D01*
X138526321Y-44251532D01*
X138645140Y-44330925D01*
X138645146Y-44330928D01*
X138645147Y-44330929D01*
X138777180Y-44385619D01*
X138777184Y-44385619D01*
X138777185Y-44385620D01*
X138917342Y-44413500D01*
X138917345Y-44413500D01*
X139060257Y-44413500D01*
X139154551Y-44394742D01*
X139200420Y-44385619D01*
X139332453Y-44330929D01*
X139451279Y-44251532D01*
X139552332Y-44150479D01*
X139631729Y-44031653D01*
X139686419Y-43899620D01*
X139714300Y-43759455D01*
X139714300Y-43616545D01*
X139714300Y-43616542D01*
X139686420Y-43476385D01*
X139686419Y-43476384D01*
X139686419Y-43476380D01*
X139631729Y-43344347D01*
X139631728Y-43344346D01*
X139631725Y-43344340D01*
X139552332Y-43225521D01*
X139552329Y-43225517D01*
X139451282Y-43124470D01*
X139451278Y-43124467D01*
X139413250Y-43099057D01*
X146264299Y-43099057D01*
X146292179Y-43239214D01*
X146292181Y-43239220D01*
X146346869Y-43371250D01*
X146346874Y-43371259D01*
X146426267Y-43490078D01*
X146426270Y-43490082D01*
X146527317Y-43591129D01*
X146527321Y-43591132D01*
X146646140Y-43670525D01*
X146646146Y-43670528D01*
X146646147Y-43670529D01*
X146778180Y-43725219D01*
X146778184Y-43725219D01*
X146778185Y-43725220D01*
X146918342Y-43753100D01*
X146918345Y-43753100D01*
X147061257Y-43753100D01*
X147188947Y-43727700D01*
X147201420Y-43725219D01*
X147333453Y-43670529D01*
X147452279Y-43591132D01*
X147553332Y-43490079D01*
X147632729Y-43371253D01*
X147687419Y-43239220D01*
X147715300Y-43099055D01*
X147715300Y-42956145D01*
X147715300Y-42956142D01*
X147687420Y-42815985D01*
X147687419Y-42815984D01*
X147687419Y-42815980D01*
X147632729Y-42683947D01*
X147632728Y-42683946D01*
X147632725Y-42683940D01*
X147553332Y-42565121D01*
X147553329Y-42565117D01*
X147452282Y-42464070D01*
X147452278Y-42464067D01*
X147333459Y-42384674D01*
X147333450Y-42384669D01*
X147201420Y-42329981D01*
X147201414Y-42329979D01*
X147061257Y-42302100D01*
X147061255Y-42302100D01*
X146918345Y-42302100D01*
X146918343Y-42302100D01*
X146778185Y-42329979D01*
X146778179Y-42329981D01*
X146646149Y-42384669D01*
X146646140Y-42384674D01*
X146527321Y-42464067D01*
X146527317Y-42464070D01*
X146426270Y-42565117D01*
X146426267Y-42565121D01*
X146346874Y-42683940D01*
X146346869Y-42683949D01*
X146292181Y-42815979D01*
X146292179Y-42815985D01*
X146264300Y-42956142D01*
X146264300Y-42956145D01*
X146264300Y-43099055D01*
X146264300Y-43099057D01*
X146264299Y-43099057D01*
X139413250Y-43099057D01*
X139344553Y-43053155D01*
X139332457Y-43045073D01*
X139332450Y-43045069D01*
X139200420Y-42990381D01*
X139200414Y-42990379D01*
X139060257Y-42962500D01*
X139060255Y-42962500D01*
X138917345Y-42962500D01*
X138917343Y-42962500D01*
X138777185Y-42990379D01*
X138777179Y-42990381D01*
X138645149Y-43045069D01*
X138645140Y-43045074D01*
X138526321Y-43124467D01*
X138526317Y-43124470D01*
X138425270Y-43225517D01*
X138425267Y-43225521D01*
X138345874Y-43344340D01*
X138345869Y-43344349D01*
X138291181Y-43476379D01*
X138291179Y-43476385D01*
X138263300Y-43616542D01*
X138263300Y-43616545D01*
X138263300Y-43759455D01*
X138263300Y-43759457D01*
X138263299Y-43759457D01*
X137684732Y-43759457D01*
X137693940Y-43731118D01*
X137707560Y-43645125D01*
X137716124Y-43591055D01*
X137723500Y-43544486D01*
X137723500Y-43355513D01*
X137693940Y-43168881D01*
X137653710Y-43045069D01*
X137635547Y-42989168D01*
X137635545Y-42989165D01*
X137635545Y-42989163D01*
X137549759Y-42820800D01*
X137546257Y-42815980D01*
X137438690Y-42667927D01*
X137305073Y-42534310D01*
X137152199Y-42423240D01*
X136983836Y-42337454D01*
X136804118Y-42279059D01*
X136617486Y-42249500D01*
X136617481Y-42249500D01*
X136428519Y-42249500D01*
X136428514Y-42249500D01*
X136241881Y-42279059D01*
X136062163Y-42337454D01*
X135893800Y-42423240D01*
X135806579Y-42486610D01*
X135740927Y-42534310D01*
X135740925Y-42534312D01*
X135740924Y-42534312D01*
X135607312Y-42667924D01*
X135607312Y-42667925D01*
X135607310Y-42667927D01*
X135591573Y-42689587D01*
X135496240Y-42820800D01*
X135410454Y-42989163D01*
X135352059Y-43168881D01*
X135322500Y-43355513D01*
X132623500Y-43355513D01*
X132593940Y-43168881D01*
X132553710Y-43045069D01*
X132535547Y-42989168D01*
X132535545Y-42989165D01*
X132535545Y-42989163D01*
X132449759Y-42820800D01*
X132446257Y-42815980D01*
X132338690Y-42667927D01*
X132205073Y-42534310D01*
X132052199Y-42423240D01*
X131883836Y-42337454D01*
X131704118Y-42279059D01*
X131517486Y-42249500D01*
X131517481Y-42249500D01*
X131328519Y-42249500D01*
X131328514Y-42249500D01*
X131141881Y-42279059D01*
X130962163Y-42337454D01*
X130793800Y-42423240D01*
X130706579Y-42486610D01*
X130640927Y-42534310D01*
X130640925Y-42534312D01*
X130640924Y-42534312D01*
X130512181Y-42663056D01*
X130450858Y-42696541D01*
X130381166Y-42691557D01*
X130325233Y-42649685D01*
X130300816Y-42584221D01*
X130300500Y-42575375D01*
X130300500Y-41006092D01*
X130301097Y-40993938D01*
X130301097Y-40993937D01*
X130312744Y-40875678D01*
X130317483Y-40851856D01*
X130350203Y-40743990D01*
X130359499Y-40721549D01*
X130412632Y-40622144D01*
X130426133Y-40601940D01*
X130497635Y-40514814D01*
X130514814Y-40497635D01*
X130601942Y-40426131D01*
X130622144Y-40412632D01*
X130721549Y-40359499D01*
X130743990Y-40350203D01*
X130851856Y-40317483D01*
X130875682Y-40312744D01*
X130975730Y-40302890D01*
X130993940Y-40301097D01*
X131006093Y-40300500D01*
X131047595Y-40300500D01*
X143842977Y-40300500D01*
X143910016Y-40320185D01*
G37*
%TD.AperFunction*%
%TD*%
M02*
