%TF.GenerationSoftware,KiCad,Pcbnew,9.0.0*%
%TF.CreationDate,2026-01-11T13:31:27+01:00*%
%TF.ProjectId,ldc_tdc_driver,6c64635f-7464-4635-9f64-72697665722e,rev?*%
%TF.SameCoordinates,Original*%
%TF.FileFunction,Soldermask,Top*%
%TF.FilePolarity,Negative*%
%FSLAX46Y46*%
G04 Gerber Fmt 4.6, Leading zero omitted, Abs format (unit mm)*
G04 Created by KiCad (PCBNEW 9.0.0) date 2026-01-11 13:31:27*
%MOMM*%
%LPD*%
G01*
G04 APERTURE LIST*
G04 Aperture macros list*
%AMRoundRect*
0 Rectangle with rounded corners*
0 $1 Rounding radius*
0 $2 $3 $4 $5 $6 $7 $8 $9 X,Y pos of 4 corners*
0 Add a 4 corners polygon primitive as box body*
4,1,4,$2,$3,$4,$5,$6,$7,$8,$9,$2,$3,0*
0 Add four circle primitives for the rounded corners*
1,1,$1+$1,$2,$3*
1,1,$1+$1,$4,$5*
1,1,$1+$1,$6,$7*
1,1,$1+$1,$8,$9*
0 Add four rect primitives between the rounded corners*
20,1,$1+$1,$2,$3,$4,$5,0*
20,1,$1+$1,$4,$5,$6,$7,0*
20,1,$1+$1,$6,$7,$8,$9,0*
20,1,$1+$1,$8,$9,$2,$3,0*%
G04 Aperture macros list end*
%ADD10R,1.700000X1.700000*%
%ADD11O,1.700000X1.700000*%
%ADD12RoundRect,0.200000X0.275000X-0.200000X0.275000X0.200000X-0.275000X0.200000X-0.275000X-0.200000X0*%
%ADD13RoundRect,0.200100X-0.949900X0.949900X-0.949900X-0.949900X0.949900X-0.949900X0.949900X0.949900X0*%
%ADD14C,2.200000*%
%ADD15RoundRect,0.150000X-0.825000X-0.150000X0.825000X-0.150000X0.825000X0.150000X-0.825000X0.150000X0*%
%ADD16RoundRect,0.225000X0.250000X-0.225000X0.250000X0.225000X-0.250000X0.225000X-0.250000X-0.225000X0*%
%ADD17R,1.000000X1.500000*%
%ADD18RoundRect,0.190000X0.610000X0.190000X-0.610000X0.190000X-0.610000X-0.190000X0.610000X-0.190000X0*%
%ADD19RoundRect,0.225000X-0.225000X-0.250000X0.225000X-0.250000X0.225000X0.250000X-0.225000X0.250000X0*%
%ADD20RoundRect,0.225000X-0.250000X0.225000X-0.250000X-0.225000X0.250000X-0.225000X0.250000X0.225000X0*%
%ADD21RoundRect,0.200000X-0.200000X-0.275000X0.200000X-0.275000X0.200000X0.275000X-0.200000X0.275000X0*%
%ADD22RoundRect,0.150000X0.150000X-0.512500X0.150000X0.512500X-0.150000X0.512500X-0.150000X-0.512500X0*%
%ADD23RoundRect,0.200000X0.200000X0.275000X-0.200000X0.275000X-0.200000X-0.275000X0.200000X-0.275000X0*%
%ADD24RoundRect,0.150000X0.825000X0.150000X-0.825000X0.150000X-0.825000X-0.150000X0.825000X-0.150000X0*%
%ADD25RoundRect,0.200000X-0.275000X0.200000X-0.275000X-0.200000X0.275000X-0.200000X0.275000X0.200000X0*%
%ADD26RoundRect,0.225000X0.225000X0.250000X-0.225000X0.250000X-0.225000X-0.250000X0.225000X-0.250000X0*%
%ADD27RoundRect,0.200100X0.949900X-0.949900X0.949900X0.949900X-0.949900X0.949900X-0.949900X-0.949900X0*%
G04 APERTURE END LIST*
%TO.C,JP3*%
G36*
X159418600Y-53555200D02*
G01*
X161018600Y-53555200D01*
X161018600Y-55055200D01*
X159418600Y-55055200D01*
X159418600Y-53555200D01*
G37*
%TD*%
D10*
%TO.C,J2*%
X169189400Y-52197000D03*
D11*
X169189400Y-54737000D03*
%TD*%
D12*
%TO.C,R33*%
X148037550Y-57771800D03*
X148037550Y-56121800D03*
%TD*%
D13*
%TO.C,J6*%
X166940800Y-61000000D03*
D14*
X169490800Y-58450000D03*
X164390800Y-58450000D03*
X169490800Y-63550000D03*
X164390800Y-63550000D03*
%TD*%
D15*
%TO.C,U3*%
X148362900Y-43027600D03*
X148362900Y-44297600D03*
X148362900Y-45567600D03*
X148362900Y-46837600D03*
X148362900Y-48107600D03*
X148362900Y-49377600D03*
X148362900Y-50647600D03*
X148362900Y-51917600D03*
X153312900Y-51917600D03*
X153312900Y-50647600D03*
X153312900Y-49377600D03*
X153312900Y-48107600D03*
X153312900Y-46837600D03*
X153312900Y-45567600D03*
X153312900Y-44297600D03*
X153312900Y-43027600D03*
%TD*%
D16*
%TO.C,C44*%
X156464000Y-58636200D03*
X156464000Y-57086200D03*
%TD*%
D15*
%TO.C,U4*%
X140323800Y-43027600D03*
X140323800Y-44297600D03*
X140323800Y-45567600D03*
X140323800Y-46837600D03*
X140323800Y-48107600D03*
X140323800Y-49377600D03*
X140323800Y-50647600D03*
X140323800Y-51917600D03*
X145273800Y-51917600D03*
X145273800Y-50647600D03*
X145273800Y-49377600D03*
X145273800Y-48107600D03*
X145273800Y-46837600D03*
X145273800Y-45567600D03*
X145273800Y-44297600D03*
X145273800Y-43027600D03*
%TD*%
D12*
%TO.C,R7*%
X159858000Y-61831500D03*
X159858000Y-60181500D03*
%TD*%
D17*
%TO.C,JP3*%
X158918600Y-54305200D03*
X160218600Y-54305200D03*
X161518600Y-54305200D03*
%TD*%
D12*
%TO.C,R30*%
X139290425Y-57771800D03*
X139290425Y-56121800D03*
%TD*%
D18*
%TO.C,SW1*%
X147469200Y-64084200D03*
X147469200Y-62814200D03*
X147469200Y-61544200D03*
X147469200Y-60274200D03*
X139849200Y-60274200D03*
X139849200Y-61544200D03*
X139849200Y-62814200D03*
X139849200Y-64084200D03*
%TD*%
D19*
%TO.C,C45*%
X155485800Y-53797200D03*
X157035800Y-53797200D03*
%TD*%
D20*
%TO.C,C34*%
X161467800Y-60231500D03*
X161467800Y-61781500D03*
%TD*%
D12*
%TO.C,R29*%
X142789275Y-57771800D03*
X142789275Y-56121800D03*
%TD*%
D20*
%TO.C,C29*%
X166497000Y-52819000D03*
X166497000Y-54369000D03*
%TD*%
D21*
%TO.C,R27*%
X155435800Y-55346600D03*
X157085800Y-55346600D03*
%TD*%
D22*
%TO.C,U1*%
X156301400Y-62714000D03*
X157251400Y-62714000D03*
X158201400Y-62714000D03*
X158201400Y-60439000D03*
X157251400Y-60439000D03*
X156301400Y-60439000D03*
%TD*%
D12*
%TO.C,R31*%
X141039850Y-57771800D03*
X141039850Y-56121800D03*
%TD*%
%TO.C,R28*%
X144538700Y-57771800D03*
X144538700Y-56121800D03*
%TD*%
D23*
%TO.C,R26*%
X161907800Y-41376600D03*
X160257800Y-41376600D03*
%TD*%
D24*
%TO.C,U2*%
X161337800Y-51917600D03*
X161337800Y-50647600D03*
X161337800Y-49377600D03*
X161337800Y-48107600D03*
X161337800Y-46837600D03*
X161337800Y-45567600D03*
X161337800Y-44297600D03*
X161337800Y-43027600D03*
X156387800Y-43027600D03*
X156387800Y-44297600D03*
X156387800Y-45567600D03*
X156387800Y-46837600D03*
X156387800Y-48107600D03*
X156387800Y-49377600D03*
X156387800Y-50647600D03*
X156387800Y-51917600D03*
%TD*%
D25*
%TO.C,R34*%
X158161000Y-57036000D03*
X158161000Y-58686000D03*
%TD*%
D10*
%TO.C,J3*%
X150743600Y-65176800D03*
D11*
X153283600Y-65176800D03*
%TD*%
D12*
%TO.C,R32*%
X146288125Y-57771800D03*
X146288125Y-56121800D03*
%TD*%
D13*
%TO.C,J9*%
X166940800Y-46000000D03*
D14*
X169490800Y-43450000D03*
X164390800Y-43450000D03*
X169490800Y-48550000D03*
X164390800Y-48550000D03*
%TD*%
D26*
%TO.C,C46*%
X153832900Y-41376600D03*
X152282900Y-41376600D03*
%TD*%
D27*
%TO.C,J8*%
X133973000Y-46000000D03*
D14*
X131423000Y-48550000D03*
X136523000Y-48550000D03*
X131423000Y-43450000D03*
X136523000Y-43450000D03*
%TD*%
D12*
%TO.C,R36*%
X151536400Y-57771800D03*
X151536400Y-56121800D03*
%TD*%
D26*
%TO.C,C47*%
X145793800Y-41402000D03*
X144243800Y-41402000D03*
%TD*%
D12*
%TO.C,R35*%
X149786975Y-57771800D03*
X149786975Y-56121800D03*
%TD*%
D16*
%TO.C,C33*%
X159858000Y-58636000D03*
X159858000Y-57086000D03*
%TD*%
D12*
%TO.C,R25*%
X154635200Y-61831500D03*
X154635200Y-60181500D03*
%TD*%
D27*
%TO.C,J7*%
X133973000Y-61000000D03*
D14*
X131423000Y-63550000D03*
X136523000Y-63550000D03*
X131423000Y-58450000D03*
X136523000Y-58450000D03*
%TD*%
G36*
X133470839Y-50235485D02*
G01*
X133516594Y-50288289D01*
X133527800Y-50339800D01*
X133527800Y-56619600D01*
X133508115Y-56686639D01*
X133455311Y-56732394D01*
X133403800Y-56743600D01*
X130124000Y-56743600D01*
X130056961Y-56723915D01*
X130011206Y-56671111D01*
X130000000Y-56619600D01*
X130000000Y-50339800D01*
X130019685Y-50272761D01*
X130072489Y-50227006D01*
X130124000Y-50215800D01*
X133403800Y-50215800D01*
X133470839Y-50235485D01*
G37*
M02*
